<svg version="1.1" viewBox="0.0 0.0 439.5301837270341 468.61942257217845" fill="none" stroke="none" stroke-linecap="square" stroke-miterlimit="10" xmlns:xlink="http://www.w3.org/1999/xlink" xmlns="http://www.w3.org/2000/svg"><clipPath id="p.0"><path d="m0 0l439.53018 0l0 468.61942l-439.53018 0l0 -468.61942z" clip-rule="nonzero"/></clipPath><g clip-path="url(#p.0)"><path fill="#000000" fill-opacity="0.0" d="m0 0l439.53018 0l0 468.61942l-439.53018 0z" fill-rule="evenodd"/><path fill="#b7b7b7" d="m83.93438 26.69115l0 0c0 -1.3915825 1.1281052 -2.5196838 2.5196915 -2.5196838l0 0c0.66825867 0 1.3091507 0.26546478 1.7816849 0.73799706c0.47253418 0.47253418 0.73799896 1.1134243 0.73799896 1.7816868l0 0c0 1.3915844 -1.1281052 2.5196857 -2.5196838 2.5196857l0 0c-1.3915863 0 -2.5196915 -1.1281013 -2.5196915 -2.5196857z" fill-rule="evenodd"/><path fill="#b7b7b7" d="m115.93438 26.69115l0 0c0 -1.3915825 1.1281052 -2.5196838 2.5196915 -2.5196838l0 0c0.66825867 0 1.3091507 0.26546478 1.7816849 0.73799706c0.47253418 0.47253418 0.73799896 1.1134243 0.73799896 1.7816868l0 0c0 1.3915844 -1.1281052 2.5196857 -2.5196838 2.5196857l0 0c-1.3915863 0 -2.5196915 -1.1281013 -2.5196915 -2.5196857z" fill-rule="evenodd"/><path fill="#b7b7b7" d="m147.93439 26.69115l0 0c0 -1.3915825 1.1280975 -2.5196838 2.5196838 -2.5196838l0 0c0.66825867 0 1.3091583 0.26546478 1.7816772 0.73799706c0.47253418 0.47253418 0.7380066 1.1134243 0.7380066 1.7816868l0 0c0 1.3915844 -1.1280975 2.5196857 -2.5196838 2.5196857l0 0c-1.3915863 0 -2.5196838 -1.1281013 -2.5196838 -2.5196857z" fill-rule="evenodd"/><path fill="#b7b7b7" d="m179.93439 26.69115l0 0c0 -1.3915825 1.1280975 -2.5196838 2.5196838 -2.5196838l0 0c0.66825867 0 1.3091583 0.26546478 1.7816772 0.73799706c0.47253418 0.47253418 0.7380066 1.1134243 0.7380066 1.7816868l0 0c0 1.3915844 -1.1280975 2.5196857 -2.5196838 2.5196857l0 0c-1.3915863 0 -2.5196838 -1.1281013 -2.5196838 -2.5196857z" fill-rule="evenodd"/><path fill="#b7b7b7" d="m211.93439 26.69115l0 0c0 -1.3915825 1.1280975 -2.5196838 2.5196838 -2.5196838l0 0c0.66825867 0 1.3091583 0.26546478 1.7816772 0.73799706c0.47253418 0.47253418 0.7380066 1.1134243 0.7380066 1.7816868l0 0c0 1.3915844 -1.1280975 2.5196857 -2.5196838 2.5196857l0 0c-1.3915863 0 -2.5196838 -1.1281013 -2.5196838 -2.5196857z" fill-rule="evenodd"/><path fill="#b7b7b7" d="m243.93439 26.69115l0 0c0 -1.3915825 1.1280975 -2.5196838 2.5196838 -2.5196838l0 0c0.66825867 0 1.3091583 0.26546478 1.7816772 0.73799706c0.47253418 0.47253418 0.7380066 1.1134243 0.7380066 1.7816868l0 0c0 1.3915844 -1.1280975 2.5196857 -2.5196838 2.5196857l0 0c-1.3915863 0 -2.5196838 -1.1281013 -2.5196838 -2.5196857z" fill-rule="evenodd"/><path fill="#b7b7b7" d="m275.9344 26.69115l0 0c0 -1.3915825 1.1280823 -2.5196838 2.5196838 -2.5196838l0 0c0.6682739 0 1.3091431 0.26546478 1.7816772 0.73799706c0.47253418 0.47253418 0.7380066 1.1134243 0.7380066 1.7816868l0 0c0 1.3915844 -1.1281128 2.5196857 -2.5196838 2.5196857l0 0c-1.3916016 0 -2.5196838 -1.1281013 -2.5196838 -2.5196857z" fill-rule="evenodd"/><path fill="#b7b7b7" d="m307.9344 26.69115l0 0c0 -1.3915825 1.1280823 -2.5196838 2.5196838 -2.5196838l0 0c0.6682739 0 1.3091431 0.26546478 1.7816772 0.73799706c0.47253418 0.47253418 0.7380066 1.1134243 0.7380066 1.7816868l0 0c0 1.3915844 -1.1281128 2.5196857 -2.5196838 2.5196857l0 0c-1.3916016 0 -2.5196838 -1.1281013 -2.5196838 -2.5196857z" fill-rule="evenodd"/><path fill="#b7b7b7" d="m339.9344 26.69115l0 0c0 -1.3915825 1.1280823 -2.5196838 2.5196838 -2.5196838l0 0c0.6682739 0 1.3091431 0.26546478 1.7816772 0.73799706c0.47253418 0.47253418 0.7380066 1.1134243 0.7380066 1.7816868l0 0c0 1.3915844 -1.1281128 2.5196857 -2.5196838 2.5196857l0 0c-1.3916016 0 -2.5196838 -1.1281013 -2.5196838 -2.5196857z" fill-rule="evenodd"/><path fill="#b7b7b7" d="m371.9344 26.69115l0 0c0 -1.3915825 1.1280823 -2.5196838 2.5196838 -2.5196838l0 0c0.6682739 0 1.3091431 0.26546478 1.7816772 0.73799706c0.47253418 0.47253418 0.7380066 1.1134243 0.7380066 1.7816868l0 0c0 1.3915844 -1.1281128 2.5196857 -2.5196838 2.5196857l0 0c-1.3916016 0 -2.5196838 -1.1281013 -2.5196838 -2.5196857z" fill-rule="evenodd"/><path fill="#b7b7b7" d="m83.93438 58.69115l0 0c0 -1.3915825 1.1281052 -2.5196838 2.5196915 -2.5196838l0 0c0.66825867 0 1.3091507 0.26546478 1.7816849 0.73799896c0.47253418 0.47253036 0.73799896 1.1134224 0.73799896 1.7816849l0 0c0 1.3915825 -1.1281052 2.5196838 -2.5196838 2.5196838l0 0c-1.3915863 0 -2.5196915 -1.1281013 -2.5196915 -2.5196838z" fill-rule="evenodd"/><path fill="#b7b7b7" d="m115.93438 58.69115l0 0c0 -1.3915825 1.1281052 -2.5196838 2.5196915 -2.5196838l0 0c0.66825867 0 1.3091507 0.26546478 1.7816849 0.73799896c0.47253418 0.47253036 0.73799896 1.1134224 0.73799896 1.7816849l0 0c0 1.3915825 -1.1281052 2.5196838 -2.5196838 2.5196838l0 0c-1.3915863 0 -2.5196915 -1.1281013 -2.5196915 -2.5196838z" fill-rule="evenodd"/><path fill="#b7b7b7" d="m147.93439 58.69115l0 0c0 -1.3915825 1.1280975 -2.5196838 2.5196838 -2.5196838l0 0c0.66825867 0 1.3091583 0.26546478 1.7816772 0.73799896c0.47253418 0.47253036 0.7380066 1.1134224 0.7380066 1.7816849l0 0c0 1.3915825 -1.1280975 2.5196838 -2.5196838 2.5196838l0 0c-1.3915863 0 -2.5196838 -1.1281013 -2.5196838 -2.5196838z" fill-rule="evenodd"/><path fill="#b7b7b7" d="m179.93439 58.69115l0 0c0 -1.3915825 1.1280975 -2.5196838 2.5196838 -2.5196838l0 0c0.66825867 0 1.3091583 0.26546478 1.7816772 0.73799896c0.47253418 0.47253036 0.7380066 1.1134224 0.7380066 1.7816849l0 0c0 1.3915825 -1.1280975 2.5196838 -2.5196838 2.5196838l0 0c-1.3915863 0 -2.5196838 -1.1281013 -2.5196838 -2.5196838z" fill-rule="evenodd"/><path fill="#b7b7b7" d="m211.93439 58.69115l0 0c0 -1.3915825 1.1280975 -2.5196838 2.5196838 -2.5196838l0 0c0.66825867 0 1.3091583 0.26546478 1.7816772 0.73799896c0.47253418 0.47253036 0.7380066 1.1134224 0.7380066 1.7816849l0 0c0 1.3915825 -1.1280975 2.5196838 -2.5196838 2.5196838l0 0c-1.3915863 0 -2.5196838 -1.1281013 -2.5196838 -2.5196838z" fill-rule="evenodd"/><path fill="#b7b7b7" d="m243.93439 58.69115l0 0c0 -1.3915825 1.1280975 -2.5196838 2.5196838 -2.5196838l0 0c0.66825867 0 1.3091583 0.26546478 1.7816772 0.73799896c0.47253418 0.47253036 0.7380066 1.1134224 0.7380066 1.7816849l0 0c0 1.3915825 -1.1280975 2.5196838 -2.5196838 2.5196838l0 0c-1.3915863 0 -2.5196838 -1.1281013 -2.5196838 -2.5196838z" fill-rule="evenodd"/><path fill="#b7b7b7" d="m275.9344 58.69115l0 0c0 -1.3915825 1.1280823 -2.5196838 2.5196838 -2.5196838l0 0c0.6682739 0 1.3091431 0.26546478 1.7816772 0.73799896c0.47253418 0.47253036 0.7380066 1.1134224 0.7380066 1.7816849l0 0c0 1.3915825 -1.1281128 2.5196838 -2.5196838 2.5196838l0 0c-1.3916016 0 -2.5196838 -1.1281013 -2.5196838 -2.5196838z" fill-rule="evenodd"/><path fill="#b7b7b7" d="m307.9344 58.69115l0 0c0 -1.3915825 1.1280823 -2.5196838 2.5196838 -2.5196838l0 0c0.6682739 0 1.3091431 0.26546478 1.7816772 0.73799896c0.47253418 0.47253036 0.7380066 1.1134224 0.7380066 1.7816849l0 0c0 1.3915825 -1.1281128 2.5196838 -2.5196838 2.5196838l0 0c-1.3916016 0 -2.5196838 -1.1281013 -2.5196838 -2.5196838z" fill-rule="evenodd"/><path fill="#b7b7b7" d="m339.9344 58.69115l0 0c0 -1.3915825 1.1280823 -2.5196838 2.5196838 -2.5196838l0 0c0.6682739 0 1.3091431 0.26546478 1.7816772 0.73799896c0.47253418 0.47253036 0.7380066 1.1134224 0.7380066 1.7816849l0 0c0 1.3915825 -1.1281128 2.5196838 -2.5196838 2.5196838l0 0c-1.3916016 0 -2.5196838 -1.1281013 -2.5196838 -2.5196838z" fill-rule="evenodd"/><path fill="#b7b7b7" d="m371.9344 58.69115l0 0c0 -1.3915825 1.1280823 -2.5196838 2.5196838 -2.5196838l0 0c0.6682739 0 1.3091431 0.26546478 1.7816772 0.73799896c0.47253418 0.47253036 0.7380066 1.1134224 0.7380066 1.7816849l0 0c0 1.3915825 -1.1281128 2.5196838 -2.5196838 2.5196838l0 0c-1.3916016 0 -2.5196838 -1.1281013 -2.5196838 -2.5196838z" fill-rule="evenodd"/><path fill="#b7b7b7" d="m82.40945 90.69239l0 0c0 -2.2352295 1.8120117 -4.047241 4.047249 -4.047241l0 0c1.0733948 0 2.102829 0.42640686 2.8618317 1.1854095c0.7590027 0.7590027 1.1854095 1.7884369 1.1854095 2.8618317l0 0c0 2.2352295 -1.8120117 4.047249 -4.047241 4.047249l0 0c-2.2352371 0 -4.047249 -1.8120193 -4.047249 -4.047249z" fill-rule="evenodd"/><path fill="#b7b7b7" d="m113.301834 90.68782l0 0c0 -2.8440552 2.3055573 -5.1496124 5.1496124 -5.1496124l0 0c1.3657608 0 2.675583 0.54254913 3.6413193 1.5082855c0.9657364 0.965744 1.5082855 2.275566 1.5082855 3.641327l0 0c0 2.8440475 -2.3055573 5.149605 -5.149605 5.149605l0 0c-2.8440552 0 -5.1496124 -2.3055573 -5.1496124 -5.149605z" fill-rule="evenodd"/><path fill="#b7b7b7" d="m146.14436 90.69848l0 0c0 -2.3830795 1.9318695 -4.3149567 4.3149567 -4.3149567l0 0c1.1443939 0 2.241928 0.45461273 3.0511322 1.2638245c0.80921936 0.80921173 1.2638245 1.9067383 1.2638245 3.0511322l0 0c0 2.3830872 -1.9318695 4.3149643 -4.3149567 4.3149643l0 0c-2.3830872 0 -4.3149567 -1.9318771 -4.3149567 -4.3149643z" fill-rule="evenodd"/><path fill="#b7b7b7" d="m179.93439 90.691154l0 0c0 -1.3915863 1.1280975 -2.5196915 2.5196838 -2.5196915l0 0c0.66825867 0 1.3091583 0.2654724 1.7816772 0.73799896c0.47253418 0.47253418 0.7380066 1.1134262 0.7380066 1.7816925l0 0c0 1.3915787 -1.1280975 2.5196838 -2.5196838 2.5196838l0 0c-1.3915863 0 -2.5196838 -1.1281052 -2.5196838 -2.5196838z" fill-rule="evenodd"/><path fill="#b7b7b7" d="m211.93439 90.691154l0 0c0 -1.3915863 1.1280975 -2.5196915 2.5196838 -2.5196915l0 0c0.66825867 0 1.3091583 0.2654724 1.7816772 0.73799896c0.47253418 0.47253418 0.7380066 1.1134262 0.7380066 1.7816925l0 0c0 1.3915787 -1.1280975 2.5196838 -2.5196838 2.5196838l0 0c-1.3915863 0 -2.5196838 -1.1281052 -2.5196838 -2.5196838z" fill-rule="evenodd"/><path fill="#b7b7b7" d="m243.93439 90.691154l0 0c0 -1.3915863 1.1280975 -2.5196915 2.5196838 -2.5196915l0 0c0.66825867 0 1.3091583 0.2654724 1.7816772 0.73799896c0.47253418 0.47253418 0.7380066 1.1134262 0.7380066 1.7816925l0 0c0 1.3915787 -1.1280975 2.5196838 -2.5196838 2.5196838l0 0c-1.3915863 0 -2.5196838 -1.1281052 -2.5196838 -2.5196838z" fill-rule="evenodd"/><path fill="#b7b7b7" d="m275.9344 90.691154l0 0c0 -1.3915863 1.1280823 -2.5196915 2.5196838 -2.5196915l0 0c0.6682739 0 1.3091431 0.2654724 1.7816772 0.73799896c0.47253418 0.47253418 0.7380066 1.1134262 0.7380066 1.7816925l0 0c0 1.3915787 -1.1281128 2.5196838 -2.5196838 2.5196838l0 0c-1.3916016 0 -2.5196838 -1.1281052 -2.5196838 -2.5196838z" fill-rule="evenodd"/><path fill="#b7b7b7" d="m307.9344 90.691154l0 0c0 -1.3915863 1.1280823 -2.5196915 2.5196838 -2.5196915l0 0c0.6682739 0 1.3091431 0.2654724 1.7816772 0.73799896c0.47253418 0.47253418 0.7380066 1.1134262 0.7380066 1.7816925l0 0c0 1.3915787 -1.1281128 2.5196838 -2.5196838 2.5196838l0 0c-1.3916016 0 -2.5196838 -1.1281052 -2.5196838 -2.5196838z" fill-rule="evenodd"/><path fill="#b7b7b7" d="m339.9344 90.691154l0 0c0 -1.3915863 1.1280823 -2.5196915 2.5196838 -2.5196915l0 0c0.6682739 0 1.3091431 0.2654724 1.7816772 0.73799896c0.47253418 0.47253418 0.7380066 1.1134262 0.7380066 1.7816925l0 0c0 1.3915787 -1.1281128 2.5196838 -2.5196838 2.5196838l0 0c-1.3916016 0 -2.5196838 -1.1281052 -2.5196838 -2.5196838z" fill-rule="evenodd"/><path fill="#b7b7b7" d="m371.9344 90.691154l0 0c0 -1.3915863 1.1280823 -2.5196915 2.5196838 -2.5196915l0 0c0.6682739 0 1.3091431 0.2654724 1.7816772 0.73799896c0.47253418 0.47253418 0.7380066 1.1134262 0.7380066 1.7816925l0 0c0 1.3915787 -1.1281128 2.5196838 -2.5196838 2.5196838l0 0c-1.3916016 0 -2.5196838 -1.1281052 -2.5196838 -2.5196838z" fill-rule="evenodd"/><path fill="#b7b7b7" d="m79.96326 122.68767l0 0c0 -3.5833282 2.9048615 -6.4881897 6.4881897 -6.4881897l0 0c1.7207718 0 3.3710709 0.6835785 4.587837 1.9003448c1.216774 1.216774 1.9003525 2.867073 1.9003525 4.587845l0 0c0 3.5833282 -2.9048615 6.4881897 -6.4881897 6.4881897l0 0c-3.5833282 0 -6.4881897 -2.9048615 -6.4881897 -6.4881897z" fill-rule="evenodd"/><path fill="#b7b7b7" d="m110.31233 122.69295l0 0c0 -4.496559 3.6451797 -8.141731 8.141739 -8.141731l0 0c2.159317 0 4.2302017 0.8577881 5.7570724 2.3846588c1.5268707 1.5268707 2.3846588 3.5977478 2.3846588 5.7570724l0 0c0 4.4965515 -3.6451797 8.141724 -8.141731 8.141724l0 0c-4.496559 0 -8.141739 -3.645172 -8.141739 -8.141724z" fill-rule="evenodd"/><path fill="#b7b7b7" d="m142.30971 122.690025l0 0c0 -4.4965515 3.6451874 -8.141731 8.141739 -8.141731l0 0c2.159317 0 4.230194 0.8577881 5.757065 2.3846588c1.5268707 1.5268707 2.3846588 3.5977554 2.3846588 5.7570724l0 0c0 4.496559 -3.645172 8.141731 -8.141724 8.141731l0 0c-4.4965515 0 -8.141739 -3.645172 -8.141739 -8.141731z" fill-rule="evenodd"/><path fill="#b7b7b7" d="m176.54855 122.69053l0 0c0 -3.2615204 2.6439972 -5.90551 5.9055176 -5.90551l0 0c1.5662384 0 3.0683289 0.62218475 4.175827 1.7296829c1.1074982 1.1074982 1.7296753 2.6095886 1.7296753 4.175827l0 0c0 3.261528 -2.643982 5.90551 -5.9055023 5.90551l0 0c-3.2615204 0 -5.9055176 -2.643982 -5.9055176 -5.90551z" fill-rule="evenodd"/><path fill="#b7b7b7" d="m211.93439 122.691154l0 0c0 -1.3915863 1.1280975 -2.5196915 2.5196838 -2.5196915l0 0c0.66825867 0 1.3091583 0.2654724 1.7816772 0.73799896c0.47253418 0.47253418 0.7380066 1.1134262 0.7380066 1.7816925l0 0c0 1.3915787 -1.1280975 2.5196838 -2.5196838 2.5196838l0 0c-1.3915863 0 -2.5196838 -1.1281052 -2.5196838 -2.5196838z" fill-rule="evenodd"/><path fill="#b7b7b7" d="m243.93439 122.691154l0 0c0 -1.3915863 1.1280975 -2.5196915 2.5196838 -2.5196915l0 0c0.66825867 0 1.3091583 0.2654724 1.7816772 0.73799896c0.47253418 0.47253418 0.7380066 1.1134262 0.7380066 1.7816925l0 0c0 1.3915787 -1.1280975 2.5196838 -2.5196838 2.5196838l0 0c-1.3915863 0 -2.5196838 -1.1281052 -2.5196838 -2.5196838z" fill-rule="evenodd"/><path fill="#b7b7b7" d="m275.9344 122.691154l0 0c0 -1.3915863 1.1280823 -2.5196915 2.5196838 -2.5196915l0 0c0.6682739 0 1.3091431 0.2654724 1.7816772 0.73799896c0.47253418 0.47253418 0.7380066 1.1134262 0.7380066 1.7816925l0 0c0 1.3915787 -1.1281128 2.5196838 -2.5196838 2.5196838l0 0c-1.3916016 0 -2.5196838 -1.1281052 -2.5196838 -2.5196838z" fill-rule="evenodd"/><path fill="#b7b7b7" d="m307.9344 122.691154l0 0c0 -1.3915863 1.1280823 -2.5196915 2.5196838 -2.5196915l0 0c0.6682739 0 1.3091431 0.2654724 1.7816772 0.73799896c0.47253418 0.47253418 0.7380066 1.1134262 0.7380066 1.7816925l0 0c0 1.3915787 -1.1281128 2.5196838 -2.5196838 2.5196838l0 0c-1.3916016 0 -2.5196838 -1.1281052 -2.5196838 -2.5196838z" fill-rule="evenodd"/><path fill="#b7b7b7" d="m339.9344 122.691154l0 0c0 -1.3915863 1.1280823 -2.5196915 2.5196838 -2.5196915l0 0c0.6682739 0 1.3091431 0.2654724 1.7816772 0.73799896c0.47253418 0.47253418 0.7380066 1.1134262 0.7380066 1.7816925l0 0c0 1.3915787 -1.1281128 2.5196838 -2.5196838 2.5196838l0 0c-1.3916016 0 -2.5196838 -1.1281052 -2.5196838 -2.5196838z" fill-rule="evenodd"/><path fill="#b7b7b7" d="m371.9344 122.691154l0 0c0 -1.3915863 1.1280823 -2.5196915 2.5196838 -2.5196915l0 0c0.6682739 0 1.3091431 0.2654724 1.7816772 0.73799896c0.47253418 0.47253418 0.7380066 1.1134262 0.7380066 1.7816925l0 0c0 1.3915787 -1.1281128 2.5196838 -2.5196838 2.5196838l0 0c-1.3916016 0 -2.5196838 -1.1281052 -2.5196838 -2.5196838z" fill-rule="evenodd"/><path fill="#b7b7b7" d="m79.362206 154.7008l0 0c0 -3.9225159 3.1798325 -7.102356 7.1023636 -7.102356l0 0c1.8836594 0 3.690178 0.74827576 5.0221252 2.0802307c1.331955 1.331955 2.0802383 3.1384735 2.0802383 5.0221252l0 0c0 3.9225311 -3.17984 7.102371 -7.1023636 7.102371l0 0c-3.9225311 0 -7.1023636 -3.17984 -7.1023636 -7.102371z" fill-rule="evenodd"/><path fill="#b7b7b7" d="m107.40682 154.68327l0 0c0 -6.096878 4.9424973 -11.039368 11.039375 -11.039368l0 0c2.9278183 0 5.7357254 1.1630707 7.8060074 3.2333527c2.0702896 2.070282 3.2333603 4.878189 3.2333603 7.806015l0 0c0 6.096878 -4.9424973 11.039368 -11.039368 11.039368l0 0c-6.096878 0 -11.039375 -4.9424896 -11.039375 -11.039368z" fill-rule="evenodd"/><path fill="#b7b7b7" d="m141.24147 154.69308l0 0c0 -5.087982 4.1246185 -9.212601 9.212601 -9.212601l0 0c2.4433289 0 4.7865906 0.9706116 6.514282 2.6983032c1.7277069 1.7276917 2.6983185 4.0709534 2.6983185 6.5142975l0 0c0 5.087967 -4.1246185 9.212585 -9.212601 9.212585l0 0c-5.087982 0 -9.212601 -4.1246185 -9.212601 -9.212585z" fill-rule="evenodd"/><path fill="#b7b7b7" d="m176.08136 154.69801l0 0c0 -3.5224457 2.8555145 -6.37796 6.37796 -6.37796l0 0c1.6915283 0 3.313797 0.67196655 4.5098877 1.8680573c1.196106 1.196106 1.8680573 2.8183594 1.8680573 4.509903l0 0c0 3.5224457 -2.8554993 6.377945 -6.377945 6.377945l0 0c-3.5224457 0 -6.37796 -2.8554993 -6.37796 -6.377945z" fill-rule="evenodd"/><path fill="#b7b7b7" d="m210.81102 154.68787l0 0c0 -2.0090942 1.6286926 -3.6378021 3.6378021 -3.6378021l0 0c0.964798 0 1.890091 0.38327026 2.5723114 1.0654907c0.68222046 0.68222046 1.0654755 1.6075134 1.0654755 2.5723114l0 0c0 2.0090942 -1.6286926 3.6377869 -3.6377869 3.6377869l0 0c-2.0091095 0 -3.6378021 -1.6286926 -3.6378021 -3.6377869z" fill-rule="evenodd"/><path fill="#b7b7b7" d="m243.93439 154.69115l0 0c0 -1.3915863 1.1280975 -2.5196838 2.5196838 -2.5196838l0 0c0.66825867 0 1.3091583 0.2654724 1.7816772 0.7380066c0.47253418 0.47253418 0.7380066 1.1134186 0.7380066 1.7816772l0 0c0 1.3915863 -1.1280975 2.5196838 -2.5196838 2.5196838l0 0c-1.3915863 0 -2.5196838 -1.1280975 -2.5196838 -2.5196838z" fill-rule="evenodd"/><path fill="#b7b7b7" d="m275.9344 154.69115l0 0c0 -1.3915863 1.1280823 -2.5196838 2.5196838 -2.5196838l0 0c0.6682739 0 1.3091431 0.2654724 1.7816772 0.7380066c0.47253418 0.47253418 0.7380066 1.1134186 0.7380066 1.7816772l0 0c0 1.3915863 -1.1281128 2.5196838 -2.5196838 2.5196838l0 0c-1.3916016 0 -2.5196838 -1.1280975 -2.5196838 -2.5196838z" fill-rule="evenodd"/><path fill="#b7b7b7" d="m307.9344 154.69115l0 0c0 -1.3915863 1.1280823 -2.5196838 2.5196838 -2.5196838l0 0c0.6682739 0 1.3091431 0.2654724 1.7816772 0.7380066c0.47253418 0.47253418 0.7380066 1.1134186 0.7380066 1.7816772l0 0c0 1.3915863 -1.1281128 2.5196838 -2.5196838 2.5196838l0 0c-1.3916016 0 -2.5196838 -1.1280975 -2.5196838 -2.5196838z" fill-rule="evenodd"/><path fill="#b7b7b7" d="m339.9344 154.69115l0 0c0 -1.3915863 1.1280823 -2.5196838 2.5196838 -2.5196838l0 0c0.6682739 0 1.3091431 0.2654724 1.7816772 0.7380066c0.47253418 0.47253418 0.7380066 1.1134186 0.7380066 1.7816772l0 0c0 1.3915863 -1.1281128 2.5196838 -2.5196838 2.5196838l0 0c-1.3916016 0 -2.5196838 -1.1280975 -2.5196838 -2.5196838z" fill-rule="evenodd"/><path fill="#b7b7b7" d="m371.9344 154.69115l0 0c0 -1.3915863 1.1280823 -2.5196838 2.5196838 -2.5196838l0 0c0.6682739 0 1.3091431 0.2654724 1.7816772 0.7380066c0.47253418 0.47253418 0.7380066 1.1134186 0.7380066 1.7816772l0 0c0 1.3915863 -1.1281128 2.5196838 -2.5196838 2.5196838l0 0c-1.3916016 0 -2.5196838 -1.1280975 -2.5196838 -2.5196838z" fill-rule="evenodd"/><path fill="#b7b7b7" d="m81.16798 186.6982l0 0c0 -2.9223175 2.3690186 -5.291336 5.2913437 -5.291336l0 0c1.4033508 0 2.7492218 0.55747986 3.741539 1.5498047c0.9923172 0.9923096 1.549797 2.3381805 1.549797 3.7415314l0 0c0 2.9223328 -2.369011 5.291336 -5.291336 5.291336l0 0c-2.9223251 0 -5.2913437 -2.3690033 -5.2913437 -5.291336z" fill-rule="evenodd"/><path fill="#b7b7b7" d="m110.31233 186.68753l0 0c0 -4.4965515 3.6451797 -8.141739 8.141739 -8.141739l0 0c2.159317 0 4.2302017 0.8577881 5.7570724 2.3846588c1.5268707 1.5268707 2.3846588 3.597763 2.3846588 5.75708l0 0c0 4.4965515 -3.6451797 8.141724 -8.141731 8.141724l0 0c-4.496559 0 -8.141739 -3.645172 -8.141739 -8.141724z" fill-rule="evenodd"/><path fill="#b7b7b7" d="m142.2231 186.69673l0 0c0 -4.5487366 3.6874847 -8.236221 8.236221 -8.236221l0 0c2.184372 0 4.279297 0.8677521 5.823883 2.4123383c1.5445862 1.5445862 2.4123383 3.639511 2.4123383 5.823883l0 0c0 4.548752 -3.6874847 8.236221 -8.236221 8.236221l0 0c-4.5487366 0 -8.236221 -3.6874695 -8.236221 -8.236221z" fill-rule="evenodd"/><path fill="#b7b7b7" d="m176.68242 186.68506l0 0c0 -3.183258 2.5805206 -5.7637787 5.7637787 -5.7637787l0 0c1.5286407 0 2.99469 0.607254 4.0756073 1.6881714c1.0809174 1.0809174 1.6881714 2.5469513 1.6881714 4.0756073l0 0c0 3.1832428 -2.580536 5.7637787 -5.7637787 5.7637787l0 0c-3.183258 0 -5.7637787 -2.580536 -5.7637787 -5.7637787z" fill-rule="evenodd"/><path fill="#b7b7b7" d="m211.93439 186.69115l0 0c0 -1.3915863 1.1280975 -2.5196838 2.5196838 -2.5196838l0 0c0.66825867 0 1.3091583 0.2654724 1.7816772 0.7380066c0.47253418 0.47253418 0.7380066 1.1134186 0.7380066 1.7816772l0 0c0 1.3915863 -1.1280975 2.5196838 -2.5196838 2.5196838l0 0c-1.3915863 0 -2.5196838 -1.1280975 -2.5196838 -2.5196838z" fill-rule="evenodd"/><path fill="#b7b7b7" d="m243.93439 186.69115l0 0c0 -1.3915863 1.1280975 -2.5196838 2.5196838 -2.5196838l0 0c0.66825867 0 1.3091583 0.2654724 1.7816772 0.7380066c0.47253418 0.47253418 0.7380066 1.1134186 0.7380066 1.7816772l0 0c0 1.3915863 -1.1280975 2.5196838 -2.5196838 2.5196838l0 0c-1.3915863 0 -2.5196838 -1.1280975 -2.5196838 -2.5196838z" fill-rule="evenodd"/><path fill="#b7b7b7" d="m275.9344 186.69115l0 0c0 -1.3915863 1.1280823 -2.5196838 2.5196838 -2.5196838l0 0c0.6682739 0 1.3091431 0.2654724 1.7816772 0.7380066c0.47253418 0.47253418 0.7380066 1.1134186 0.7380066 1.7816772l0 0c0 1.3915863 -1.1281128 2.5196838 -2.5196838 2.5196838l0 0c-1.3916016 0 -2.5196838 -1.1280975 -2.5196838 -2.5196838z" fill-rule="evenodd"/><path fill="#b7b7b7" d="m307.9344 186.69115l0 0c0 -1.3915863 1.1280823 -2.5196838 2.5196838 -2.5196838l0 0c0.6682739 0 1.3091431 0.2654724 1.7816772 0.7380066c0.47253418 0.47253418 0.7380066 1.1134186 0.7380066 1.7816772l0 0c0 1.3915863 -1.1281128 2.5196838 -2.5196838 2.5196838l0 0c-1.3916016 0 -2.5196838 -1.1280975 -2.5196838 -2.5196838z" fill-rule="evenodd"/><path fill="#b7b7b7" d="m339.9344 186.69115l0 0c0 -1.3915863 1.1280823 -2.5196838 2.5196838 -2.5196838l0 0c0.6682739 0 1.3091431 0.2654724 1.7816772 0.7380066c0.47253418 0.47253418 0.7380066 1.1134186 0.7380066 1.7816772l0 0c0 1.3915863 -1.1281128 2.5196838 -2.5196838 2.5196838l0 0c-1.3916016 0 -2.5196838 -1.1280975 -2.5196838 -2.5196838z" fill-rule="evenodd"/><path fill="#b7b7b7" d="m371.9344 186.69115l0 0c0 -1.3915863 1.1280823 -2.5196838 2.5196838 -2.5196838l0 0c0.6682739 0 1.3091431 0.2654724 1.7816772 0.7380066c0.47253418 0.47253418 0.7380066 1.1134186 0.7380066 1.7816772l0 0c0 1.3915863 -1.1281128 2.5196838 -2.5196838 2.5196838l0 0c-1.3916016 0 -2.5196838 -1.1280975 -2.5196838 -2.5196838z" fill-rule="evenodd"/><path fill="#b7b7b7" d="m82.979004 218.6952l0 0c0 -1.9221191 1.5581894 -3.4803162 3.4803162 -3.4803162l0 0c0.92303467 0 1.8082657 0.36668396 2.4609528 1.0193634c0.6526871 0.6526947 1.0193634 1.5379181 1.0193634 2.4609528l0 0c0 1.9221344 -1.558197 3.4803162 -3.4803162 3.4803162l0 0c-1.9221268 0 -3.4803162 -1.5581818 -3.4803162 -3.4803162z" fill-rule="evenodd"/><path fill="#b7b7b7" d="m112.950134 218.69815l0 0c0 -3.044098 2.46772 -5.5118256 5.5118103 -5.5118256l0 0c1.4618225 0 2.8637695 0.580719 3.897438 1.6143799c1.0336609 1.0336609 1.6143723 2.435608 1.6143723 3.8974457l0 0c0 3.0440826 -2.46772 5.5118103 -5.5118103 5.5118103l0 0c-3.0440903 0 -5.5118103 -2.4677277 -5.5118103 -5.5118103z" fill-rule="evenodd"/><path fill="#b7b7b7" d="m145.20735 218.68764l0 0c0 -2.896225 2.3478546 -5.244095 5.244095 -5.244095l0 0c1.3908234 0 2.7246704 0.5525055 3.70813 1.535965c0.9834595 0.9834595 1.535965 2.3173218 1.535965 3.70813l0 0c0 2.8962402 -2.3478699 5.244095 -5.244095 5.244095l0 0c-2.8962402 0 -5.244095 -2.3478546 -5.244095 -5.244095z" fill-rule="evenodd"/><path fill="#b7b7b7" d="m179.17323 218.6878l0 0c0 -1.8090668 1.4665222 -3.275589 3.275589 -3.275589l0 0c0.8687439 0 1.7019043 0.34509277 2.3161926 0.95939636c0.61428833 0.61428833 0.95939636 1.4474487 0.95939636 2.3161926l0 0c0 1.8090515 -1.4665375 3.275589 -3.275589 3.275589l0 0c-1.8090668 0 -3.275589 -1.4665375 -3.275589 -3.275589z" fill-rule="evenodd"/><path fill="#b7b7b7" d="m211.93439 218.69115l0 0c0 -1.3915863 1.1280975 -2.5196838 2.5196838 -2.5196838l0 0c0.66825867 0 1.3091583 0.2654724 1.7816772 0.7380066c0.47253418 0.47253418 0.7380066 1.1134186 0.7380066 1.7816772l0 0c0 1.3915863 -1.1280975 2.5196838 -2.5196838 2.5196838l0 0c-1.3915863 0 -2.5196838 -1.1280975 -2.5196838 -2.5196838z" fill-rule="evenodd"/><path fill="#b7b7b7" d="m243.93439 218.69115l0 0c0 -1.3915863 1.1280975 -2.5196838 2.5196838 -2.5196838l0 0c0.66825867 0 1.3091583 0.2654724 1.7816772 0.7380066c0.47253418 0.47253418 0.7380066 1.1134186 0.7380066 1.7816772l0 0c0 1.3915863 -1.1280975 2.5196838 -2.5196838 2.5196838l0 0c-1.3915863 0 -2.5196838 -1.1280975 -2.5196838 -2.5196838z" fill-rule="evenodd"/><path fill="#b7b7b7" d="m275.9344 218.69115l0 0c0 -1.3915863 1.1280823 -2.5196838 2.5196838 -2.5196838l0 0c0.6682739 0 1.3091431 0.2654724 1.7816772 0.7380066c0.47253418 0.47253418 0.7380066 1.1134186 0.7380066 1.7816772l0 0c0 1.3915863 -1.1281128 2.5196838 -2.5196838 2.5196838l0 0c-1.3916016 0 -2.5196838 -1.1280975 -2.5196838 -2.5196838z" fill-rule="evenodd"/><path fill="#b7b7b7" d="m307.9344 218.69115l0 0c0 -1.3915863 1.1280823 -2.5196838 2.5196838 -2.5196838l0 0c0.6682739 0 1.3091431 0.2654724 1.7816772 0.7380066c0.47253418 0.47253418 0.7380066 1.1134186 0.7380066 1.7816772l0 0c0 1.3915863 -1.1281128 2.5196838 -2.5196838 2.5196838l0 0c-1.3916016 0 -2.5196838 -1.1280975 -2.5196838 -2.5196838z" fill-rule="evenodd"/><path fill="#b7b7b7" d="m339.9344 218.69115l0 0c0 -1.3915863 1.1280823 -2.5196838 2.5196838 -2.5196838l0 0c0.6682739 0 1.3091431 0.2654724 1.7816772 0.7380066c0.47253418 0.47253418 0.7380066 1.1134186 0.7380066 1.7816772l0 0c0 1.3915863 -1.1281128 2.5196838 -2.5196838 2.5196838l0 0c-1.3916016 0 -2.5196838 -1.1280975 -2.5196838 -2.5196838z" fill-rule="evenodd"/><path fill="#b7b7b7" d="m371.9344 218.69115l0 0c0 -1.3915863 1.1280823 -2.5196838 2.5196838 -2.5196838l0 0c0.6682739 0 1.3091431 0.2654724 1.7816772 0.7380066c0.47253418 0.47253418 0.7380066 1.1134186 0.7380066 1.7816772l0 0c0 1.3915863 -1.1281128 2.5196838 -2.5196838 2.5196838l0 0c-1.3916016 0 -2.5196838 -1.1280975 -2.5196838 -2.5196838z" fill-rule="evenodd"/><path fill="#b7b7b7" d="m83.93438 250.69115l0 0c0 -1.3915863 1.1281052 -2.5196838 2.5196915 -2.5196838l0 0c0.66825867 0 1.3091507 0.2654724 1.7816849 0.7380066c0.47253418 0.47253418 0.73799896 1.1134186 0.73799896 1.7816772l0 0c0 1.3915863 -1.1281052 2.5196838 -2.5196838 2.5196838l0 0c-1.3915863 0 -2.5196915 -1.1280975 -2.5196915 -2.5196838z" fill-rule="evenodd"/><path fill="#b7b7b7" d="m114.902885 250.69781l0 0c0 -1.965622 1.5934448 -3.5590668 3.5590591 -3.5590668l0 0c0.9439163 0 1.8491745 0.37498474 2.516632 1.0424347c0.66744995 0.66744995 1.0424194 1.5727081 1.0424194 2.516632l0 0c0 1.9656067 -1.5934448 3.5590515 -3.5590515 3.5590515l0 0c-1.9656143 0 -3.5590591 -1.5934448 -3.5590591 -3.5590515z" fill-rule="evenodd"/><path fill="#b7b7b7" d="m147.93439 250.69115l0 0c0 -1.3915863 1.1280975 -2.5196838 2.5196838 -2.5196838l0 0c0.66825867 0 1.3091583 0.2654724 1.7816772 0.7380066c0.47253418 0.47253418 0.7380066 1.1134186 0.7380066 1.7816772l0 0c0 1.3915863 -1.1280975 2.5196838 -2.5196838 2.5196838l0 0c-1.3915863 0 -2.5196838 -1.1280975 -2.5196838 -2.5196838z" fill-rule="evenodd"/><path fill="#b7b7b7" d="m179.93439 250.69115l0 0c0 -1.3915863 1.1280975 -2.5196838 2.5196838 -2.5196838l0 0c0.66825867 0 1.3091583 0.2654724 1.7816772 0.7380066c0.47253418 0.47253418 0.7380066 1.1134186 0.7380066 1.7816772l0 0c0 1.3915863 -1.1280975 2.5196838 -2.5196838 2.5196838l0 0c-1.3915863 0 -2.5196838 -1.1280975 -2.5196838 -2.5196838z" fill-rule="evenodd"/><path fill="#b7b7b7" d="m211.93439 250.69115l0 0c0 -1.3915863 1.1280975 -2.5196838 2.5196838 -2.5196838l0 0c0.66825867 0 1.3091583 0.2654724 1.7816772 0.7380066c0.47253418 0.47253418 0.7380066 1.1134186 0.7380066 1.7816772l0 0c0 1.3915863 -1.1280975 2.5196838 -2.5196838 2.5196838l0 0c-1.3915863 0 -2.5196838 -1.1280975 -2.5196838 -2.5196838z" fill-rule="evenodd"/><path fill="#b7b7b7" d="m243.93439 250.69115l0 0c0 -1.3915863 1.1280975 -2.5196838 2.5196838 -2.5196838l0 0c0.66825867 0 1.3091583 0.2654724 1.7816772 0.7380066c0.47253418 0.47253418 0.7380066 1.1134186 0.7380066 1.7816772l0 0c0 1.3915863 -1.1280975 2.5196838 -2.5196838 2.5196838l0 0c-1.3915863 0 -2.5196838 -1.1280975 -2.5196838 -2.5196838z" fill-rule="evenodd"/><path fill="#b7b7b7" d="m275.9344 250.69115l0 0c0 -1.3915863 1.1280823 -2.5196838 2.5196838 -2.5196838l0 0c0.6682739 0 1.3091431 0.2654724 1.7816772 0.7380066c0.47253418 0.47253418 0.7380066 1.1134186 0.7380066 1.7816772l0 0c0 1.3915863 -1.1281128 2.5196838 -2.5196838 2.5196838l0 0c-1.3916016 0 -2.5196838 -1.1280975 -2.5196838 -2.5196838z" fill-rule="evenodd"/><path fill="#b7b7b7" d="m307.9344 250.69115l0 0c0 -1.3915863 1.1280823 -2.5196838 2.5196838 -2.5196838l0 0c0.6682739 0 1.3091431 0.2654724 1.7816772 0.7380066c0.47253418 0.47253418 0.7380066 1.1134186 0.7380066 1.7816772l0 0c0 1.3915863 -1.1281128 2.5196838 -2.5196838 2.5196838l0 0c-1.3916016 0 -2.5196838 -1.1280975 -2.5196838 -2.5196838z" fill-rule="evenodd"/><path fill="#b7b7b7" d="m339.9344 250.69115l0 0c0 -1.3915863 1.1280823 -2.5196838 2.5196838 -2.5196838l0 0c0.6682739 0 1.3091431 0.2654724 1.7816772 0.7380066c0.47253418 0.47253418 0.7380066 1.1134186 0.7380066 1.7816772l0 0c0 1.3915863 -1.1281128 2.5196838 -2.5196838 2.5196838l0 0c-1.3916016 0 -2.5196838 -1.1280975 -2.5196838 -2.5196838z" fill-rule="evenodd"/><path fill="#b7b7b7" d="m371.9344 250.69115l0 0c0 -1.3915863 1.1280823 -2.5196838 2.5196838 -2.5196838l0 0c0.6682739 0 1.3091431 0.2654724 1.7816772 0.7380066c0.47253418 0.47253418 0.7380066 1.1134186 0.7380066 1.7816772l0 0c0 1.3915863 -1.1281128 2.5196838 -2.5196838 2.5196838l0 0c-1.3916016 0 -2.5196838 -1.1280975 -2.5196838 -2.5196838z" fill-rule="evenodd"/><path fill="#b7b7b7" d="m83.93438 282.69116l0 0c0 -1.3916016 1.1281052 -2.5196838 2.5196915 -2.5196838l0 0c0.66825867 0 1.3091507 0.2654419 1.7816849 0.7379761c0.47253418 0.47253418 0.73799896 1.1134338 0.73799896 1.7817078l0 0c0 1.391571 -1.1281052 2.5196838 -2.5196838 2.5196838l0 0c-1.3915863 0 -2.5196915 -1.1281128 -2.5196915 -2.5196838z" fill-rule="evenodd"/><path fill="#b7b7b7" d="m115.93438 282.69116l0 0c0 -1.3916016 1.1281052 -2.5196838 2.5196915 -2.5196838l0 0c0.66825867 0 1.3091507 0.2654419 1.7816849 0.7379761c0.47253418 0.47253418 0.73799896 1.1134338 0.73799896 1.7817078l0 0c0 1.391571 -1.1281052 2.5196838 -2.5196838 2.5196838l0 0c-1.3915863 0 -2.5196915 -1.1281128 -2.5196915 -2.5196838z" fill-rule="evenodd"/><path fill="#b7b7b7" d="m147.93439 282.69116l0 0c0 -1.3916016 1.1280975 -2.5196838 2.5196838 -2.5196838l0 0c0.66825867 0 1.3091583 0.2654419 1.7816772 0.7379761c0.47253418 0.47253418 0.7380066 1.1134338 0.7380066 1.7817078l0 0c0 1.391571 -1.1280975 2.5196838 -2.5196838 2.5196838l0 0c-1.3915863 0 -2.5196838 -1.1281128 -2.5196838 -2.5196838z" fill-rule="evenodd"/><path fill="#b7b7b7" d="m179.93439 282.69116l0 0c0 -1.3916016 1.1280975 -2.5196838 2.5196838 -2.5196838l0 0c0.66825867 0 1.3091583 0.2654419 1.7816772 0.7379761c0.47253418 0.47253418 0.7380066 1.1134338 0.7380066 1.7817078l0 0c0 1.391571 -1.1280975 2.5196838 -2.5196838 2.5196838l0 0c-1.3915863 0 -2.5196838 -1.1281128 -2.5196838 -2.5196838z" fill-rule="evenodd"/><path fill="#b7b7b7" d="m211.93439 282.69116l0 0c0 -1.3916016 1.1280975 -2.5196838 2.5196838 -2.5196838l0 0c0.66825867 0 1.3091583 0.2654419 1.7816772 0.7379761c0.47253418 0.47253418 0.7380066 1.1134338 0.7380066 1.7817078l0 0c0 1.391571 -1.1280975 2.5196838 -2.5196838 2.5196838l0 0c-1.3915863 0 -2.5196838 -1.1281128 -2.5196838 -2.5196838z" fill-rule="evenodd"/><path fill="#b7b7b7" d="m243.93439 282.69116l0 0c0 -1.3916016 1.1280975 -2.5196838 2.5196838 -2.5196838l0 0c0.66825867 0 1.3091583 0.2654419 1.7816772 0.7379761c0.47253418 0.47253418 0.7380066 1.1134338 0.7380066 1.7817078l0 0c0 1.391571 -1.1280975 2.5196838 -2.5196838 2.5196838l0 0c-1.3915863 0 -2.5196838 -1.1281128 -2.5196838 -2.5196838z" fill-rule="evenodd"/><path fill="#b7b7b7" d="m275.9344 282.69116l0 0c0 -1.3916016 1.1280823 -2.5196838 2.5196838 -2.5196838l0 0c0.6682739 0 1.3091431 0.2654419 1.7816772 0.7379761c0.47253418 0.47253418 0.7380066 1.1134338 0.7380066 1.7817078l0 0c0 1.391571 -1.1281128 2.5196838 -2.5196838 2.5196838l0 0c-1.3916016 0 -2.5196838 -1.1281128 -2.5196838 -2.5196838z" fill-rule="evenodd"/><path fill="#b7b7b7" d="m307.9344 282.69116l0 0c0 -1.3916016 1.1280823 -2.5196838 2.5196838 -2.5196838l0 0c0.6682739 0 1.3091431 0.2654419 1.7816772 0.7379761c0.47253418 0.47253418 0.7380066 1.1134338 0.7380066 1.7817078l0 0c0 1.391571 -1.1281128 2.5196838 -2.5196838 2.5196838l0 0c-1.3916016 0 -2.5196838 -1.1281128 -2.5196838 -2.5196838z" fill-rule="evenodd"/><path fill="#b7b7b7" d="m339.9344 282.69116l0 0c0 -1.3916016 1.1280823 -2.5196838 2.5196838 -2.5196838l0 0c0.6682739 0 1.3091431 0.2654419 1.7816772 0.7379761c0.47253418 0.47253418 0.7380066 1.1134338 0.7380066 1.7817078l0 0c0 1.391571 -1.1281128 2.5196838 -2.5196838 2.5196838l0 0c-1.3916016 0 -2.5196838 -1.1281128 -2.5196838 -2.5196838z" fill-rule="evenodd"/><path fill="#b7b7b7" d="m371.9344 282.69116l0 0c0 -1.3916016 1.1280823 -2.5196838 2.5196838 -2.5196838l0 0c0.6682739 0 1.3091431 0.2654419 1.7816772 0.7379761c0.47253418 0.47253418 0.7380066 1.1134338 0.7380066 1.7817078l0 0c0 1.391571 -1.1281128 2.5196838 -2.5196838 2.5196838l0 0c-1.3916016 0 -2.5196838 -1.1281128 -2.5196838 -2.5196838z" fill-rule="evenodd"/><path fill="#ffffff" d="m120.97638 169.35432l8.236221 -14.267715l8.236221 14.267715z" fill-rule="evenodd"/><path stroke="#000000" stroke-width="4.0" stroke-linejoin="round" stroke-linecap="butt" d="m120.97638 169.35432l8.236221 -14.267715l8.236221 14.267715z" fill-rule="evenodd"/><path fill="#000000" fill-opacity="0.0" d="m68.37008 3.2414699l0 298.6457" fill-rule="evenodd"/><path stroke="#000000" stroke-width="4.0" stroke-linejoin="round" stroke-linecap="butt" d="m68.37008 16.949816l0 284.93732" fill-rule="evenodd"/><path fill="#000000" stroke="#000000" stroke-width="4.0" stroke-linecap="butt" d="m68.37008 16.949816l4.498337 4.498335l-4.498337 -12.359072l-4.498333 12.359072z" fill-rule="evenodd"/><path fill="#000000" fill-opacity="0.0" d="m66.68767 300.09973l346.6772 0" fill-rule="evenodd"/><path stroke="#000000" stroke-width="4.0" stroke-linejoin="round" stroke-linecap="butt" d="m66.68767 300.09973l332.9688 0" fill-rule="evenodd"/><path fill="#000000" stroke="#000000" stroke-width="4.0" stroke-linecap="butt" d="m399.6565 300.09973l-4.498352 4.498352l12.35907 -4.498352l-12.35907 -4.4983215z" fill-rule="evenodd"/><path fill="#000000" fill-opacity="0.0" d="m68.27821 31.35433l-7.4330673 0" fill-rule="evenodd"/><path stroke="#000000" stroke-width="1.0" stroke-linejoin="round" stroke-linecap="butt" d="m68.27821 31.35433l-7.4330673 0" fill-rule="evenodd"/><path fill="#000000" fill-opacity="0.0" d="m68.59318 165.72704l-7.7480316 0" fill-rule="evenodd"/><path stroke="#000000" stroke-width="1.0" stroke-linejoin="round" stroke-linecap="butt" d="m68.59318 165.72704l-7.7480316 0" fill-rule="evenodd"/><path fill="#000000" fill-opacity="0.0" d="m384.30185 308.35696l0.03149414 -7.748047" fill-rule="evenodd"/><path stroke="#000000" stroke-width="1.0" stroke-linejoin="round" stroke-linecap="butt" d="m384.30185 308.35696l0.03149414 -7.748047" fill-rule="evenodd"/><path fill="#000000" fill-opacity="0.0" d="m197.05052 308.35696l0.03149414 -7.748047" fill-rule="evenodd"/><path stroke="#000000" stroke-width="1.0" stroke-linejoin="round" stroke-linecap="butt" d="m197.05052 308.35696l0.03149414 -7.748047" fill-rule="evenodd"/><path fill="#000000" fill-opacity="0.0" d="m33.800526 282.05118l31.999996 0l0 35.55905l-31.999996 0z" fill-rule="evenodd"/><path fill="#000000" d="m49.934925 299.14804q0 -1.6875 0.34375 -2.71875q0.359375 -1.03125 1.046875 -1.59375q0.6875 -0.5625 1.71875 -0.5625q0.78125 0 1.359375 0.3125q0.578125 0.296875 0.953125 0.890625q0.375 0.578125 0.59375 1.421875q0.21875 0.828125 0.21875 2.25q0 1.671875 -0.359375 2.703125q-0.34375 1.03125 -1.03125 1.59375q-0.671875 0.5625 -1.734375 0.5625q-1.375 0 -2.15625 -0.984375q-0.953125 -1.1875 -0.953125 -3.875zm1.203125 0q0 2.34375 0.546875 3.125q0.5625 0.78125 1.359375 0.78125q0.8125 0 1.359375 -0.78125q0.5625 -0.78125 0.5625 -3.125q0 -2.359375 -0.5625 -3.125q-0.546875 -0.78125 -1.359375 -0.78125q-0.8125 0 -1.296875 0.6875q-0.609375 0.875 -0.609375 3.21875z" fill-rule="nonzero"/><path fill="#000000" fill-opacity="0.0" d="m33.800526 147.55118l31.999996 0l0 35.55905l-31.999996 0z" fill-rule="evenodd"/><path fill="#000000" d="m49.934925 166.85118l1.234375 -0.109375q0.140625 0.90625 0.640625 1.359375q0.5 0.453125 1.203125 0.453125q0.84375 0 1.421875 -0.640625q0.59375 -0.640625 0.59375 -1.6875q0 -1.0 -0.5625 -1.578125q-0.5625 -0.59375 -1.484375 -0.59375q-0.5625 0 -1.015625 0.265625q-0.453125 0.25 -0.71875 0.671875l-1.09375 -0.15625l0.921875 -4.890625l4.75 0l0 1.109375l-3.8125 0l-0.515625 2.5625q0.859375 -0.59375 1.796875 -0.59375q1.25 0 2.109375 0.875q0.859375 0.859375 0.859375 2.21875q0 1.296875 -0.75 2.234375q-0.921875 1.15625 -2.5 1.15625q-1.3125 0 -2.140625 -0.71875q-0.8125 -0.734375 -0.9375 -1.9375z" fill-rule="nonzero"/><path fill="#000000" fill-opacity="0.0" d="m26.551182 13.301837l39.24409 0l0 35.559055l-39.24409 0z" fill-rule="evenodd"/><path fill="#000000" d="m46.939075 35.101837l-1.171875 0l0 -7.46875q-0.421875 0.40625 -1.109375 0.8125q-0.6875 0.40625 -1.234375 0.609375l0 -1.140625q0.984375 -0.453125 1.71875 -1.109375q0.734375 -0.671875 1.03125 -1.28125l0.765625 0l0 9.578125zm2.9906006 -4.703125q0 -1.6875 0.34375 -2.71875q0.359375 -1.03125 1.046875 -1.59375q0.6875 -0.5625 1.71875 -0.5625q0.78125 0 1.359375 0.3125q0.578125 0.296875 0.953125 0.890625q0.375 0.578125 0.59375 1.421875q0.21875 0.828125 0.21875 2.25q0 1.671875 -0.359375 2.703125q-0.34375 1.03125 -1.03125 1.59375q-0.671875 0.5625 -1.734375 0.5625q-1.375 0 -2.15625 -0.984375q-0.953125 -1.1875 -0.953125 -3.875zm1.203125 0q0 2.34375 0.546875 3.125q0.5625 0.78125 1.359375 0.78125q0.8125 0 1.359375 -0.78125q0.5625 -0.78125 0.5625 -3.125q0 -2.359375 -0.5625 -3.125q-0.546875 -0.78125 -1.359375 -0.78125q-0.8125 0 -1.296875 0.6875q-0.609375 0.875 -0.609375 3.21875z" fill-rule="nonzero"/><path fill="#000000" fill-opacity="0.0" d="m0.79330707 237.95801l0 -144.0l42.015747 0l0 144.0z" fill-rule="evenodd"/><path fill="#000000" d="m27.713305 215.83401l-13.359374 0l0 -5.046875q0 -1.328125 0.125 -2.03125q0.171875 -0.96875 0.640625 -1.640625q0.453125 -0.671875 1.281249 -1.078125q0.828125 -0.40625 1.828125 -0.40625q1.703125 0 2.890625 1.09375q1.171875 1.078125 1.171875 3.921875l0 3.421875l5.421875 0l0 1.765625zm-7.0 -1.765625l0 -3.453125q0 -1.71875 -0.640625 -2.4375q-0.640625 -0.71875 -1.796875 -0.71875q-0.84375 0 -1.4375 0.421875q-0.59375 0.421875 -0.78125 1.125q-0.12499905 0.4375 -0.12499905 1.640625l0 3.421875l4.781249 0zm7.0 -10.459198l-9.671875 0l0 -1.46875l1.46875 0q-1.03125 -0.5625 -1.359375 -1.03125q-0.328125 -0.484375 -0.328125 -1.0625q0 -0.828125 0.53125 -1.6875l1.515625 0.5625q-0.359375 0.609375 -0.359375 1.203125q0 0.546875 0.328125 0.96875q0.328125 0.421875 0.890625 0.609375q0.875 0.28125 1.921875 0.28125l5.0625 0l0 1.625zm-11.46875 -6.228302l-1.890624 0l0 -1.640625l1.890624 0l0 1.640625zm11.46875 0l-9.671875 0l0 -1.640625l9.671875 0l0 1.640625zm-4.84375 -3.5354462q-2.6875 0 -3.96875 -1.484375q-1.078125 -1.25 -1.078125 -3.046875q0 -2.0 1.3125 -3.265625q1.296875 -1.265625 3.609375 -1.265625q1.859375 0 2.9375 0.5625q1.0625 0.5625 1.65625 1.640625q0.59375 1.0625 0.59375 2.328125q0 2.03125 -1.296875 3.28125q-1.3125 1.25 -3.765625 1.25zm0 -1.6875q1.859375 0 2.796875 -0.796875q0.921875 -0.8125 0.921875 -2.046875q0 -1.21875 -0.921875 -2.03125q-0.9375 -0.8125 -2.84375 -0.8125q-1.796875 0 -2.71875 0.8125q-0.921875 0.8125 -0.921875 2.03125q0 1.234375 0.921875 2.046875q0.90625 0.796875 2.765625 0.796875zm4.84375 -9.281967l-9.671875 0l0 -1.46875l1.46875 0q-1.03125 -0.5625 -1.359375 -1.03125q-0.328125 -0.484375 -0.328125 -1.0625q0 -0.828125 0.53125 -1.6875l1.515625 0.5625q-0.359375 0.609375 -0.359375 1.203125q0 0.546875 0.328125 0.96875q0.328125 0.421875 0.890625 0.609375q0.875 0.28125 1.921875 0.28125l5.0625 0l0 1.625zm0 -9.116028l-13.359374 -5.125l0 -1.90625l13.359374 -5.46875l0 2.015625l-4.046875 1.546875l0 5.59375l4.046875 1.46875l0 1.875zm-5.484375 -3.859375l0 -4.53125l-3.703125 1.40625q-1.6875 0.625 -2.765624 0.9375q1.281249 0.265625 2.546874 0.71875l3.921875 1.46875zm5.484375 -9.834198l-9.671875 0l0 -1.46875l1.46875 0q-1.03125 -0.5625 -1.359375 -1.03125q-0.328125 -0.484375 -0.328125 -1.0625q0 -0.828125 0.53125 -1.6875l1.515625 0.5625q-0.359375 0.609375 -0.359375 1.203125q0 0.546875 0.328125 0.96875q0.328125 0.421875 0.890625 0.609375q0.875 0.28125 1.921875 0.28125l5.0625 0l0 1.625zm0 -6.212677l-9.671875 0l0 -1.46875l1.46875 0q-1.03125 -0.5625 -1.359375 -1.03125q-0.328125 -0.484375 -0.328125 -1.0625q0 -0.828125 0.53125 -1.6875l1.515625 0.5625q-0.359375 0.609375 -0.359375 1.203125q0 0.546875 0.328125 0.96875q0.328125 0.421875 0.890625 0.609375q0.875 0.28125 1.921875 0.28125l5.0625 0l0 1.625zm-3.109375 -12.853302l0.203125 -1.6875q1.484375 0.40625 2.3125 1.484375q0.8125 1.078125 0.8125 2.765625q0 2.125 -1.296875 3.375q-1.3125 1.234375 -3.671875 1.234375q-2.453125 0 -3.796875 -1.25q-1.34375 -1.265625 -1.34375 -3.265625q0 -1.9375 1.328125 -3.15625q1.3125 -1.234375 3.703125 -1.234375q0.15625 0 0.4375 0l0 7.21875q1.59375 -0.09375 2.453125 -0.90625q0.84375 -0.8125 0.84375 -2.015625q0 -0.90625 -0.46875 -1.546875q-0.484375 -0.640625 -1.515625 -1.015625zm-2.65625 5.390625l0 -5.40625q-1.21875 0.109375 -1.828125 0.625q-0.953125 0.78125 -0.953125 2.03125q0 1.125 0.765625 1.90625q0.75 0.765625 2.015625 0.84375zm2.875 -8.485092l-0.25 -1.625q0.96875 -0.125 1.5 -0.75q0.515625 -0.625 0.515625 -1.75q0 -1.125 -0.453125 -1.671875q-0.46875 -0.546875 -1.09375 -0.546875q-0.546875 0 -0.875 0.484375q-0.21875 0.328125 -0.546875 1.671875q-0.46875 1.8125 -0.796875 2.515625q-0.328125 0.6875 -0.90625 1.046875q-0.59375 0.359375 -1.3125 0.359375q-0.640625 0 -1.1875 -0.296875q-0.5625 -0.296875 -0.921875 -0.8125q-0.28125 -0.375 -0.46875 -1.03125q-0.203125 -0.671875 -0.203125 -1.421875q0 -1.140625 0.328125 -2.0q0.328125 -0.859375 0.890625 -1.265625q0.5625 -0.421875 1.5 -0.578125l0.21875 1.609375q-0.75 0.109375 -1.171875 0.640625q-0.421875 0.515625 -0.421875 1.46875q0 1.140625 0.375 1.625q0.375 0.46875 0.875 0.46875q0.3125 0 0.578125 -0.1875q0.265625 -0.203125 0.4375 -0.640625q0.09375 -0.234375 0.421875 -1.4375q0.453125 -1.75 0.75 -2.4375q0.296875 -0.6875 0.859375 -1.078125q0.5625 -0.390625 1.40625 -0.390625q0.828125 0 1.546875 0.484375q0.71875 0.46875 1.125 1.375q0.390625 0.90625 0.390625 2.046875q0 1.875 -0.78125 2.875q-0.78125 0.984375 -2.328125 1.25zm1.421875 -13.5625l1.453125 -0.234375q0.140625 0.6875 0.140625 1.234375q0 0.890625 -0.28125 1.390625q-0.28125 0.484375 -0.734375 0.6875q-0.46875 0.203125 -1.9375 0.203125l-5.578125 0l0 1.203125l-1.265625 0l0 -1.203125l-2.390624 0l-0.984375 -1.625l3.374999 0l0 -1.65625l1.265625 0l0 1.65625l5.671875 0q0.6875 0 0.890625 -0.078125q0.203125 -0.09375 0.328125 -0.28125q0.109375 -0.203125 0.109375 -0.578125q0 -0.265625 -0.0625 -0.71875zm-1.421875 -0.94892883l-0.25 -1.625q0.96875 -0.125 1.5 -0.75q0.515625 -0.625 0.515625 -1.75q0 -1.125 -0.453125 -1.671875q-0.46875 -0.546875 -1.09375 -0.546875q-0.546875 0 -0.875 0.484375q-0.21875 0.328125 -0.546875 1.671875q-0.46875 1.8125 -0.796875 2.515625q-0.328125 0.6875 -0.90625 1.046875q-0.59375 0.359375 -1.3125 0.359375q-0.640625 0 -1.1875 -0.296875q-0.5625 -0.296875 -0.921875 -0.8125q-0.28125 -0.375 -0.46875 -1.03125q-0.203125 -0.671875 -0.203125 -1.421875q0 -1.140625 0.328125 -2.0q0.328125 -0.859375 0.890625 -1.265625q0.5625 -0.421875 1.5 -0.578125l0.21875 1.609375q-0.75 0.109375 -1.171875 0.640625q-0.421875 0.515625 -0.421875 1.46875q0 1.140625 0.375 1.625q0.375 0.46875 0.875 0.46875q0.3125 0 0.578125 -0.1875q0.265625 -0.203125 0.4375 -0.640625q0.09375 -0.234375 0.421875 -1.4375q0.453125 -1.75 0.75 -2.4375q0.296875 -0.6875 0.859375 -1.078125q0.5625 -0.390625 1.40625 -0.390625q0.828125 0 1.546875 0.484375q0.71875 0.46875 1.125 1.375q0.390625 0.90625 0.390625 2.046875q0 1.875 -0.78125 2.875q-0.78125 0.984375 -2.328125 1.25z" fill-rule="nonzero"/><path fill="#000000" fill-opacity="0.0" d="m157.29987 324.11154l144.0 0l0 42.015747l-144.0 0z" fill-rule="evenodd"/><path fill="#000000" d="m212.67111 351.03156l5.125 -13.359375l1.90625 0l5.46875 13.359375l-2.015625 0l-1.546875 -4.046875l-5.59375 0l-1.46875 4.046875l-1.875 0zm3.859375 -5.484375l4.53125 0l-1.40625 -3.703125q-0.625 -1.6875 -0.9375 -2.765625q-0.265625 1.28125 -0.71875 2.546875l-1.46875 3.921875zm9.537323 6.28125l1.59375 0.234375q0.109375 0.75 0.5625 1.078125q0.609375 0.453125 1.671875 0.453125q1.140625 0 1.75 -0.453125q0.625 -0.453125 0.84375 -1.265625q0.125 -0.5 0.109375 -2.109375q-1.0625 1.265625 -2.671875 1.265625q-2.0 0 -3.09375 -1.4375q-1.09375 -1.4375 -1.09375 -3.453125q0 -1.390625 0.5 -2.5625q0.515625 -1.171875 1.453125 -1.796875q0.953125 -0.640625 2.25 -0.640625q1.703125 0 2.8125 1.375l0 -1.15625l1.515625 0l0 8.359375q0 2.265625 -0.46875 3.203125q-0.453125 0.9375 -1.453125 1.484375q-0.984375 0.546875 -2.453125 0.546875q-1.71875 0 -2.796875 -0.78125q-1.0625 -0.765625 -1.03125 -2.34375zm1.359375 -5.8125q0 1.90625 0.75 2.78125q0.765625 0.875 1.90625 0.875q1.125 0 1.890625 -0.859375q0.765625 -0.875 0.765625 -2.734375q0 -1.78125 -0.796875 -2.671875q-0.78125 -0.90625 -1.890625 -0.90625q-1.09375 0 -1.859375 0.890625q-0.765625 0.875 -0.765625 2.625zm15.953842 1.90625l1.6875 0.203125q-0.40625 1.484375 -1.484375 2.3125q-1.078125 0.8125 -2.765625 0.8125q-2.125 0 -3.375 -1.296875q-1.234375 -1.3125 -1.234375 -3.671875q0 -2.453125 1.25 -3.796875q1.265625 -1.34375 3.265625 -1.34375q1.9375 0 3.15625 1.328125q1.234375 1.3125 1.234375 3.703125q0 0.15625 0 0.4375l-7.21875 0q0.09375 1.59375 0.90625 2.453125q0.8125 0.84375 2.015625 0.84375q0.90625 0 1.546875 -0.46875q0.640625 -0.484375 1.015625 -1.515625zm-5.390625 -2.65625l5.40625 0q-0.109375 -1.21875 -0.625 -1.828125q-0.78125 -0.953125 -2.03125 -0.953125q-1.125 0 -1.90625 0.765625q-0.765625 0.75 -0.84375 2.015625z" fill-rule="nonzero"/><path fill="#000000" fill-opacity="0.0" d="m47.550526 303.3025l42.01575 0l0 35.55905l-42.01575 0z" fill-rule="evenodd"/><path fill="#000000" d="m66.11467 325.10248l-1.171875 0l0 -7.46875q-0.421875 0.40625 -1.1093712 0.8125q-0.6875 0.40625 -1.234375 0.609375l0 -1.140625q0.984375 -0.453125 1.7187462 -1.109375q0.734375 -0.671875 1.03125 -1.28125l0.765625 0l0 9.578125zm4.8031006 -5.171875q-0.734375 -0.265625 -1.09375 -0.765625q-0.34375 -0.5 -0.34375 -1.1875q0 -1.03125 0.75 -1.734375q0.75 -0.71875 1.984375 -0.71875q1.25 0 2.015625 0.734375q0.765625 0.71875 0.765625 1.75q0 0.671875 -0.359375 1.171875q-0.34375 0.484375 -1.046875 0.75q0.875 0.28125 1.328125 0.921875q0.46875 0.640625 0.46875 1.515625q0 1.234375 -0.875 2.0625q-0.859375 0.828125 -2.265625 0.828125q-1.421875 0 -2.28125 -0.828125q-0.859375 -0.84375 -0.859375 -2.09375q0 -0.921875 0.46875 -1.546875q0.46875 -0.640625 1.34375 -0.859375zm-0.234375 -1.984375q0 0.671875 0.4375 1.109375q0.4375 0.421875 1.125 0.421875q0.671875 0 1.109375 -0.421875q0.4375 -0.421875 0.4375 -1.046875q0 -0.640625 -0.453125 -1.078125q-0.4375 -0.4375 -1.109375 -0.4375q-0.671875 0 -1.109375 0.4375q-0.4375 0.421875 -0.4375 1.015625zm-0.375 4.40625q0 0.5 0.234375 0.96875q0.234375 0.46875 0.703125 0.734375q0.46875 0.25 1.015625 0.25q0.828125 0 1.375 -0.53125q0.546875 -0.546875 0.546875 -1.390625q0 -0.84375 -0.5625 -1.390625q-0.5625 -0.5625 -1.40625 -0.5625q-0.828125 0 -1.375 0.546875q-0.53125 0.546875 -0.53125 1.375z" fill-rule="nonzero"/><path fill="#000000" fill-opacity="0.0" d="m363.80054 303.3025l42.015747 0l0 35.55905l-42.015747 0z" fill-rule="evenodd"/><path fill="#000000" d="m377.9428 322.60248l1.234375 -0.109375q0.140625 0.90625 0.640625 1.359375q0.5 0.453125 1.203125 0.453125q0.84375 0 1.421875 -0.640625q0.59375 -0.640625 0.59375 -1.6875q0 -1.0 -0.5625 -1.578125q-0.5625 -0.59375 -1.484375 -0.59375q-0.5625 0 -1.015625 0.265625q-0.453125 0.25 -0.71875 0.671875l-1.09375 -0.15625l0.921875 -4.890625l4.75 0l0 1.109375l-3.8125 0l-0.515625 2.5625q0.859375 -0.59375 1.796875 -0.59375q1.25 0 2.109375 0.875q0.859375 0.859375 0.859375 2.21875q0 1.296875 -0.75 2.234375q-0.921875 1.15625 -2.5 1.15625q-1.3125 0 -2.140625 -0.71875q-0.8125 -0.734375 -0.9375 -1.9375zm7.4124756 -2.203125q0 -1.6875 0.34375 -2.71875q0.359375 -1.03125 1.046875 -1.59375q0.6875 -0.5625 1.71875 -0.5625q0.78125 0 1.359375 0.3125q0.578125 0.296875 0.953125 0.890625q0.375 0.578125 0.59375 1.421875q0.21875 0.828125 0.21875 2.25q0 1.671875 -0.359375 2.703125q-0.34375 1.03125 -1.03125 1.59375q-0.671875 0.5625 -1.734375 0.5625q-1.375 0 -2.15625 -0.984375q-0.953125 -1.1875 -0.953125 -3.875zm1.203125 0q0 2.34375 0.546875 3.125q0.5625 0.78125 1.359375 0.78125q0.8125 0 1.359375 -0.78125q0.5625 -0.78125 0.5625 -3.125q0 -2.359375 -0.5625 -3.125q-0.546875 -0.78125 -1.359375 -0.78125q-0.8125 0 -1.296875 0.6875q-0.609375 0.875 -0.609375 3.21875z" fill-rule="nonzero"/><path fill="#000000" fill-opacity="0.0" d="m175.55052 303.3025l42.015747 0l0 35.55905l-42.015747 0z" fill-rule="evenodd"/><path fill="#000000" d="m189.70842 322.58685l1.171875 -0.15625q0.203125 1.0 0.6875 1.4375q0.484375 0.4375 1.171875 0.4375q0.828125 0 1.390625 -0.578125q0.578125 -0.578125 0.578125 -1.421875q0 -0.796875 -0.53125 -1.3125q-0.515625 -0.53125 -1.328125 -0.53125q-0.34375 0 -0.828125 0.125l0.125 -1.03125q0.125 0.015625 0.1875 0.015625q0.75 0 1.34375 -0.390625q0.609375 -0.390625 0.609375 -1.203125q0 -0.640625 -0.4375 -1.0625q-0.4375 -0.421875 -1.125 -0.421875q-0.6875 0 -1.140625 0.4375q-0.453125 0.421875 -0.59375 1.28125l-1.171875 -0.21875q0.21875 -1.171875 0.984375 -1.8125q0.765625 -0.65625 1.890625 -0.65625q0.78125 0 1.4375 0.34375q0.65625 0.328125 1.0 0.90625q0.359375 0.578125 0.359375 1.234375q0 0.609375 -0.34375 1.125q-0.328125 0.5 -0.96875 0.796875q0.84375 0.203125 1.3125 0.828125q0.46875 0.609375 0.46875 1.53125q0 1.25 -0.921875 2.125q-0.90625 0.859375 -2.296875 0.859375q-1.25 0 -2.09375 -0.75q-0.828125 -0.75 -0.9375 -1.9375zm7.3968506 -2.1875q0 -1.6875 0.34375 -2.71875q0.359375 -1.03125 1.046875 -1.59375q0.6875 -0.5625 1.71875 -0.5625q0.78125 0 1.359375 0.3125q0.578125 0.296875 0.953125 0.890625q0.375 0.578125 0.59375 1.421875q0.21875 0.828125 0.21875 2.25q0 1.671875 -0.359375 2.703125q-0.34375 1.03125 -1.03125 1.59375q-0.671875 0.5625 -1.734375 0.5625q-1.375 0 -2.15625 -0.984375q-0.953125 -1.1875 -0.953125 -3.875zm1.203125 0q0 2.34375 0.546875 3.125q0.5625 0.78125 1.359375 0.78125q0.8125 0 1.359375 -0.78125q0.5625 -0.78125 0.5625 -3.125q0 -2.359375 -0.5625 -3.125q-0.546875 -0.78125 -1.359375 -0.78125q-0.8125 0 -1.296875 0.6875q-0.609375 0.875 -0.609375 3.21875z" fill-rule="nonzero"/><path fill="#000000" fill-opacity="0.0" d="m68.59318 266.92813c28.573181 -44.91481 39.625175 -99.04353 64.683464 -146.00919c10.109619 -18.948013 22.969727 -40.879616 43.34709 -47.670715c8.757034 -2.9184341 19.6604 -5.5810394 27.674072 -1.0007706c21.866608 12.498009 25.485947 47.07038 48.012115 58.336777c13.187515 6.595703 29.10463 -4.7603683 43.679 -7.0000916c10.792206 -1.6585007 21.924774 0.4138794 32.673615 2.3333664c25.342224 4.5255203 41.46869 30.815681 59.68393 49.00332" fill-rule="evenodd"/><path stroke="#000000" stroke-width="3.0" stroke-linejoin="round" stroke-linecap="butt" d="m68.59318 266.92813c28.573181 -44.91481 39.625175 -99.04353 64.683464 -146.00919c10.109619 -18.948013 22.969727 -40.879616 43.34709 -47.670715c8.757034 -2.9184341 19.6604 -5.5810394 27.674072 -1.0007706c21.866608 12.498009 25.485947 47.07038 48.012115 58.336777c13.187515 6.595703 29.10463 -4.7603683 43.679 -7.0000916c10.792206 -1.6585007 21.924774 0.4138794 32.673615 2.3333664c25.342224 4.5255203 41.46869 30.815681 59.68393 49.00332" fill-rule="evenodd"/><path fill="#000000" fill-opacity="0.0" d="m64.78427 289.37534l108.72441 -274.92914" fill-rule="evenodd"/><path stroke="#434343" stroke-width="3.0" stroke-linejoin="round" stroke-linecap="butt" stroke-dasharray="3.0,9.0" d="m64.78427 289.37534l108.72441 -274.92914" fill-rule="evenodd"/><path fill="#000000" fill-opacity="0.0" d="m243.09973 416.7139l0 48.346466" fill-rule="evenodd"/><path stroke="#b7b7b7" stroke-width="1.0" stroke-linejoin="round" stroke-linecap="butt" d="m243.09973 416.7139l0 48.346466" fill-rule="evenodd"/><path fill="#000000" fill-opacity="0.0" d="m59.60105 377.70078l337.22836 0l0 42.015747l-337.22836 0z" fill-rule="evenodd"/><path fill="#000000" d="m70.0698 404.6208l0 -13.359375l9.65625 0l0 1.578125l-7.875 0l0 4.09375l7.375 0l0 1.5625l-7.375 0l0 4.546875l8.1875 0l0 1.578125l-9.96875 0zm11.115448 0l3.53125 -5.03125l-3.265625 -4.640625l2.046875 0l1.484375 2.265625q0.421875 0.640625 0.671875 1.078125q0.40625 -0.59375 0.734375 -1.0625l1.640625 -2.28125l1.953125 0l-3.34375 4.546875l3.59375 5.125l-2.015625 0l-1.984375 -3.0l-0.515625 -0.8125l-2.546875 3.8125l-1.984375 0zm10.421875 3.703125l0 -13.375l1.484375 0l0 1.25q0.53125 -0.734375 1.1875 -1.09375q0.671875 -0.375 1.625 -0.375q1.234375 0 2.171875 0.640625q0.953125 0.625 1.4375 1.796875q0.484375 1.15625 0.484375 2.546875q0 1.484375 -0.53125 2.671875q-0.53125 1.1875 -1.546875 1.828125q-1.015625 0.625 -2.140625 0.625q-0.8125 0 -1.46875 -0.34375q-0.65625 -0.34375 -1.0625 -0.875l0 4.703125l-1.640625 0zm1.484375 -8.484375q0 1.859375 0.75 2.765625q0.765625 0.890625 1.828125 0.890625q1.09375 0 1.875 -0.921875q0.78125 -0.9375 0.78125 -2.875q0 -1.84375 -0.765625 -2.765625q-0.75 -0.921875 -1.8125 -0.921875q-1.046875 0 -1.859375 0.984375q-0.796875 0.96875 -0.796875 2.84375zm8.844467 4.78125l0 -13.359375l1.640625 0l0 13.359375l-1.640625 0zm10.504196 -1.1875q-0.921875 0.765625 -1.765625 1.09375q-0.828125 0.3125 -1.796875 0.3125q-1.59375 0 -2.453125 -0.78125q-0.859375 -0.78125 -0.859375 -1.984375q0 -0.71875 0.328125 -1.296875q0.328125 -0.59375 0.84375 -0.9375q0.53125 -0.359375 1.1875 -0.546875q0.46875 -0.125 1.453125 -0.25q1.984375 -0.234375 2.921875 -0.5625q0.015625 -0.34375 0.015625 -0.421875q0 -1.0 -0.46875 -1.421875q-0.625 -0.546875 -1.875 -0.546875q-1.15625 0 -1.703125 0.40625q-0.546875 0.40625 -0.8125 1.421875l-1.609375 -0.21875q0.21875 -1.015625 0.71875 -1.640625q0.5 -0.640625 1.453125 -0.984375q0.953125 -0.34375 2.1875 -0.34375q1.25 0 2.015625 0.296875q0.78125 0.28125 1.140625 0.734375q0.375 0.4375 0.515625 1.109375q0.078125 0.421875 0.078125 1.515625l0 2.1875q0 2.28125 0.109375 2.890625q0.109375 0.59375 0.40625 1.15625l-1.703125 0q-0.265625 -0.515625 -0.328125 -1.1875zm-0.140625 -3.671875q-0.890625 0.375 -2.671875 0.625q-1.015625 0.140625 -1.4375 0.328125q-0.421875 0.1875 -0.65625 0.53125q-0.21875 0.34375 -0.21875 0.78125q0 0.65625 0.5 1.09375q0.5 0.4375 1.453125 0.4375q0.9375 0 1.671875 -0.40625q0.75 -0.421875 1.09375 -1.140625q0.265625 -0.5625 0.265625 -1.640625l0 -0.609375zm4.203842 4.859375l0 -9.671875l1.46875 0l0 1.375q1.0625 -1.59375 3.078125 -1.59375q0.875 0 1.609375 0.3125q0.734375 0.3125 1.09375 0.828125q0.375 0.5 0.515625 1.203125q0.09375 0.453125 0.09375 1.59375l0 5.953125l-1.640625 0l0 -5.890625q0 -1.0 -0.203125 -1.484375q-0.1875 -0.5 -0.671875 -0.796875q-0.484375 -0.296875 -1.140625 -0.296875q-1.046875 0 -1.8125 0.671875q-0.75 0.65625 -0.75 2.515625l0 5.28125l-1.640625 0zm16.68821 -1.1875q-0.921875 0.765625 -1.765625 1.09375q-0.828125 0.3125 -1.796875 0.3125q-1.59375 0 -2.4531174 -0.78125q-0.859375 -0.78125 -0.859375 -1.984375q0 -0.71875 0.328125 -1.296875q0.328125 -0.59375 0.84375 -0.9375q0.5312424 -0.359375 1.1874924 -0.546875q0.46875 -0.125 1.453125 -0.25q1.984375 -0.234375 2.921875 -0.5625q0.015625 -0.34375 0.015625 -0.421875q0 -1.0 -0.46875 -1.421875q-0.625 -0.546875 -1.875 -0.546875q-1.15625 0 -1.703125 0.40625q-0.546875 0.40625 -0.8125 1.421875l-1.6093674 -0.21875q0.21875 -1.015625 0.71875 -1.640625q0.5 -0.640625 1.4531174 -0.984375q0.953125 -0.34375 2.1875 -0.34375q1.25 0 2.015625 0.296875q0.78125 0.28125 1.140625 0.734375q0.375 0.4375 0.515625 1.109375q0.078125 0.421875 0.078125 1.515625l0 2.1875q0 2.28125 0.109375 2.890625q0.109375 0.59375 0.40625 1.15625l-1.703125 0q-0.265625 -0.515625 -0.328125 -1.1875zm-0.140625 -3.671875q-0.890625 0.375 -2.671875 0.625q-1.015625 0.140625 -1.4375 0.328125q-0.421875 0.1875 -0.65625 0.53125q-0.21875 0.34375 -0.21875 0.78125q0 0.65625 0.5 1.09375q0.5 0.4375 1.453125 0.4375q0.9375 0 1.671875 -0.40625q0.75 -0.421875 1.09375 -1.140625q0.265625 -0.5625 0.265625 -1.640625l0 -0.609375zm7.781967 3.390625l0.234375 1.453125q-0.6875 0.140625 -1.234375 0.140625q-0.890625 0 -1.390625 -0.28125q-0.484375 -0.28125 -0.6875 -0.734375q-0.203125 -0.46875 -0.203125 -1.9375l0 -5.578125l-1.203125 0l0 -1.265625l1.203125 0l0 -2.390625l1.625 -0.984375l0 3.375l1.65625 0l0 1.265625l-1.65625 0l0 5.671875q0 0.6875 0.078125 0.890625q0.09375 0.203125 0.28125 0.328125q0.203125 0.109375 0.578125 0.109375q0.265625 0 0.71875 -0.0625zm1.6051788 -10.0l0 -1.890625l1.640625 0l0 1.890625l-1.640625 0zm0 11.46875l0 -9.671875l1.640625 0l0 9.671875l-1.640625 0zm3.5354462 -4.84375q0 -2.6875 1.484375 -3.96875q1.25 -1.078125 3.046875 -1.078125q2.0 0 3.265625 1.3125q1.265625 1.296875 1.265625 3.609375q0 1.859375 -0.5625 2.9375q-0.5625 1.0625 -1.640625 1.65625q-1.0625 0.59375 -2.328125 0.59375q-2.03125 0 -3.28125 -1.296875q-1.25 -1.3125 -1.25 -3.765625zm1.6875 0q0 1.859375 0.796875 2.796875q0.8125 0.921875 2.046875 0.921875q1.21875 0 2.03125 -0.921875q0.8125 -0.9375 0.8125 -2.84375q0 -1.796875 -0.8125 -2.71875q-0.8125 -0.921875 -2.03125 -0.921875q-1.234375 0 -2.046875 0.921875q-0.796875 0.90625 -0.796875 2.765625zm9.297592 4.84375l0 -9.671875l1.46875 0l0 1.375q1.0625 -1.59375 3.078125 -1.59375q0.875 0 1.609375 0.3125q0.734375 0.3125 1.09375 0.828125q0.375 0.5 0.515625 1.203125q0.09375 0.453125 0.09375 1.59375l0 5.953125l-1.640625 0l0 -5.890625q0 -1.0 -0.203125 -1.484375q-0.1875 -0.5 -0.671875 -0.796875q-0.484375 -0.296875 -1.140625 -0.296875q-1.046875 0 -1.8125 0.671875q-0.75 0.65625 -0.75 2.515625l0 5.28125l-1.640625 0zm18.684021 3.921875q-1.359375 -1.703125 -2.296875 -4.0q-0.9375 -2.296875 -0.9375 -4.765625q0 -2.15625 0.703125 -4.140625q0.828125 -2.3125 2.53125 -4.59375l1.171875 0q-1.09375 1.890625 -1.453125 2.703125q-0.546875 1.25 -0.875 2.625q-0.390625 1.703125 -0.390625 3.421875q0 4.375 2.71875 8.75l-1.171875 0zm3.478302 -3.921875l0 -8.40625l-1.453125 0l0 -1.265625l1.453125 0l0 -1.03125q0 -0.96875 0.171875 -1.453125q0.234375 -0.640625 0.828125 -1.03125q0.59375 -0.390625 1.671875 -0.390625q0.6875 0 1.53125 0.15625l-0.25 1.4375q-0.5 -0.09375 -0.953125 -0.09375q-0.75 0 -1.0625 0.328125q-0.3125 0.3125 -0.3125 1.1875l0 0.890625l1.890625 0l0 1.265625l-1.890625 0l0 8.40625l-1.625 0zm11.417679 -3.109375l1.6875 0.203125q-0.40625 1.484375 -1.484375 2.3125q-1.078125 0.8125 -2.765625 0.8125q-2.125 0 -3.375 -1.296875q-1.234375 -1.3125 -1.234375 -3.671875q0 -2.453125 1.25 -3.796875q1.265625 -1.34375 3.265625 -1.34375q1.9375 0 3.15625 1.328125q1.234375 1.3125 1.234375 3.703125q0 0.15625 0 0.4375l-7.21875 0q0.09375 1.59375 0.90625 2.453125q0.8125 0.84375 2.015625 0.84375q0.90625 0 1.546875 -0.46875q0.640625 -0.484375 1.015625 -1.515625zm-5.390625 -2.65625l5.40625 0q-0.109375 -1.21875 -0.625 -1.828125q-0.78125 -0.953125 -2.03125 -0.953125q-1.125 0 -1.90625 0.765625q-0.765625 0.75 -0.84375 2.015625zm15.453842 4.578125q-0.921875 0.765625 -1.765625 1.09375q-0.828125 0.3125 -1.796875 0.3125q-1.59375 0 -2.453125 -0.78125q-0.859375 -0.78125 -0.859375 -1.984375q0 -0.71875 0.328125 -1.296875q0.328125 -0.59375 0.84375 -0.9375q0.53125 -0.359375 1.1875 -0.546875q0.46875 -0.125 1.453125 -0.25q1.984375 -0.234375 2.921875 -0.5625q0.015625 -0.34375 0.015625 -0.421875q0 -1.0 -0.46875 -1.421875q-0.625 -0.546875 -1.875 -0.546875q-1.15625 0 -1.703125 0.40625q-0.546875 0.40625 -0.8125 1.421875l-1.609375 -0.21875q0.21875 -1.015625 0.71875 -1.640625q0.5 -0.640625 1.453125 -0.984375q0.953125 -0.34375 2.1875 -0.34375q1.25 0 2.015625 0.296875q0.78125 0.28125 1.140625 0.734375q0.375 0.4375 0.515625 1.109375q0.078125 0.421875 0.078125 1.515625l0 2.1875q0 2.28125 0.109375 2.890625q0.109375 0.59375 0.40625 1.15625l-1.703125 0q-0.265625 -0.515625 -0.328125 -1.1875zm-0.140625 -3.671875q-0.890625 0.375 -2.671875 0.625q-1.015625 0.140625 -1.4375 0.328125q-0.421875 0.1875 -0.65625 0.53125q-0.21875 0.34375 -0.21875 0.78125q0 0.65625 0.5 1.09375q0.5 0.4375 1.453125 0.4375q0.9375 0 1.671875 -0.40625q0.75 -0.421875 1.09375 -1.140625q0.265625 -0.5625 0.265625 -1.640625l0 -0.609375zm7.781967 3.390625l0.234375 1.453125q-0.6875 0.140625 -1.234375 0.140625q-0.890625 0 -1.390625 -0.28125q-0.484375 -0.28125 -0.6875 -0.734375q-0.203125 -0.46875 -0.203125 -1.9375l0 -5.578125l-1.203125 0l0 -1.265625l1.203125 0l0 -2.390625l1.625 -0.984375l0 3.375l1.65625 0l0 1.265625l-1.65625 0l0 5.671875q0 0.6875 0.078125 0.890625q0.09375 0.203125 0.28125 0.328125q0.203125 0.109375 0.578125 0.109375q0.265625 0 0.71875 -0.0625zm7.933304 1.46875l0 -1.421875q-1.125 1.640625 -3.0625 1.640625q-0.859375 0 -1.609375 -0.328125q-0.734375 -0.328125 -1.09375 -0.828125q-0.359375 -0.5 -0.5 -1.21875q-0.109375 -0.46875 -0.109375 -1.53125l0 -5.984375l1.640625 0l0 5.359375q0 1.28125 0.109375 1.734375q0.15625 0.640625 0.65625 1.015625q0.5 0.375 1.234375 0.375q0.734375 0 1.375 -0.375q0.65625 -0.390625 0.921875 -1.03125q0.265625 -0.65625 0.265625 -1.890625l0 -5.1875l1.640625 0l0 9.671875l-1.46875 0zm4.031967 0l0 -9.671875l1.46875 0l0 1.46875q0.5625 -1.03125 1.03125 -1.359375q0.484375 -0.328125 1.0625 -0.328125q0.828125 0 1.6875 0.53125l-0.5625 1.515625q-0.609375 -0.359375 -1.203125 -0.359375q-0.546875 0 -0.96875 0.328125q-0.421875 0.328125 -0.609375 0.890625q-0.28125 0.875 -0.28125 1.921875l0 5.0625l-1.625 0zm12.853302 -3.109375l1.6875 0.203125q-0.40625 1.484375 -1.484375 2.3125q-1.078125 0.8125 -2.765625 0.8125q-2.125 0 -3.375 -1.296875q-1.234375 -1.3125 -1.234375 -3.671875q0 -2.453125 1.25 -3.796875q1.265625 -1.34375 3.265625 -1.34375q1.9375 0 3.15625 1.328125q1.234375 1.3125 1.234375 3.703125q0 0.15625 0 0.4375l-7.21875 0q0.09375 1.59375 0.90625 2.453125q0.8125 0.84375 2.015625 0.84375q0.90625 0 1.546875 -0.46875q0.640625 -0.484375 1.015625 -1.515625zm-5.390625 -2.65625l5.40625 0q-0.109375 -1.21875 -0.625 -1.828125q-0.78125 -0.953125 -2.03125 -0.953125q-1.125 0 -1.90625 0.765625q-0.765625 0.75 -0.84375 2.015625zm14.324646 -5.703125l0 -1.890625l1.640625 0l0 1.890625l-1.640625 0zm0 11.46875l0 -9.671875l1.640625 0l0 9.671875l-1.640625 0zm4.144821 0l0 -9.671875l1.46875 0l0 1.375q1.0625 -1.59375 3.078125 -1.59375q0.875 0 1.609375 0.3125q0.734375 0.3125 1.09375 0.828125q0.375 0.5 0.515625 1.203125q0.09375 0.453125 0.09375 1.59375l0 5.953125l-1.640625 0l0 -5.890625q0 -1.0 -0.203125 -1.484375q-0.1875 -0.5 -0.671875 -0.796875q-0.484375 -0.296875 -1.140625 -0.296875q-1.046875 0 -1.8125 0.671875q-0.75 0.65625 -0.75 2.515625l0 5.28125l-1.640625 0zm10.766357 0l0 -8.40625l-1.4531403 0l0 -1.265625l1.4531403 0l0 -1.03125q0 -0.96875 0.171875 -1.453125q0.234375 -0.640625 0.828125 -1.03125q0.59375 -0.390625 1.671875 -0.390625q0.6875 0 1.53125 0.15625l-0.25 1.4375q-0.5 -0.09375 -0.953125 -0.09375q-0.75 0 -1.0625 0.328125q-0.3125 0.3125 -0.3125 1.1875l0 0.890625l1.890625 0l0 1.265625l-1.890625 0l0 8.40625l-1.625 0zm4.7457886 0l0 -13.359375l1.640625 0l0 13.359375l-1.640625 0zm10.519836 0l0 -1.421875q-1.125 1.640625 -3.0625 1.640625q-0.859375 0 -1.609375 -0.328125q-0.734375 -0.328125 -1.09375 -0.828125q-0.359375 -0.5 -0.5 -1.21875q-0.109375 -0.46875 -0.109375 -1.53125l0 -5.984375l1.640625 0l0 5.359375q0 1.28125 0.109375 1.734375q0.15625 0.640625 0.65625 1.015625q0.5 0.375 1.234375 0.375q0.734375 0 1.375 -0.375q0.65625 -0.390625 0.921875 -1.03125q0.265625 -0.65625 0.265625 -1.890625l0 -5.1875l1.640625 0l0 9.671875l-1.46875 0zm10.672577 -3.109375l1.6875 0.203125q-0.40625 1.484375 -1.484375 2.3125q-1.078125 0.8125 -2.765625 0.8125q-2.125 0 -3.375 -1.296875q-1.234375 -1.3125 -1.234375 -3.671875q0 -2.453125 1.25 -3.796875q1.265625 -1.34375 3.265625 -1.34375q1.9375 0 3.15625 1.328125q1.234375 1.3125 1.234375 3.703125q0 0.15625 0 0.4375l-7.21875 0q0.09375 1.59375 0.90625 2.453125q0.8125 0.84375 2.015625 0.84375q0.90625 0 1.546875 -0.46875q0.640625 -0.484375 1.015625 -1.515625zm-5.390625 -2.65625l5.40625 0q-0.109375 -1.21875 -0.625 -1.828125q-0.78125 -0.953125 -2.03125 -0.953125q-1.125 0 -1.90625 0.765625q-0.765625 0.75 -0.84375 2.015625zm9.141357 5.765625l0 -9.671875l1.46875 0l0 1.375q1.0625 -1.59375 3.078125 -1.59375q0.875 0 1.609375 0.3125q0.734375 0.3125 1.09375 0.828125q0.375 0.5 0.515625 1.203125q0.09375 0.453125 0.09375 1.59375l0 5.953125l-1.640625 0l0 -5.890625q0 -1.0 -0.203125 -1.484375q-0.1875 -0.5 -0.671875 -0.796875q-0.484375 -0.296875 -1.140625 -0.296875q-1.046875 0 -1.8125 0.671875q-0.75 0.65625 -0.75 2.515625l0 5.28125l-1.640625 0zm16.688202 -3.546875l1.609375 0.21875q-0.265625 1.65625 -1.359375 2.609375q-1.078125 0.9375 -2.671875 0.9375q-1.984375 0 -3.1875 -1.296875q-1.203125 -1.296875 -1.203125 -3.71875q0 -1.578125 0.515625 -2.75q0.515625 -1.171875 1.578125 -1.75q1.0625 -0.59375 2.3125 -0.59375q1.578125 0 2.578125 0.796875q1.0 0.796875 1.28125 2.265625l-1.59375 0.234375q-0.234375 -0.96875 -0.8125 -1.453125q-0.578125 -0.5 -1.390625 -0.5q-1.234375 0 -2.015625 0.890625q-0.78125 0.890625 -0.78125 2.8125q0 1.953125 0.75 2.84375q0.75 0.875 1.953125 0.875q0.96875 0 1.609375 -0.59375q0.65625 -0.59375 0.828125 -1.828125zm9.640625 0.4375l1.6875 0.203125q-0.40625 1.484375 -1.484375 2.3125q-1.078125 0.8125 -2.765625 0.8125q-2.125 0 -3.375 -1.296875q-1.234375 -1.3125 -1.234375 -3.671875q0 -2.453125 1.25 -3.796875q1.265625 -1.34375 3.265625 -1.34375q1.9375 0 3.15625 1.328125q1.234375 1.3125 1.234375 3.703125q0 0.15625 0 0.4375l-7.21875 0q0.09375 1.59375 0.90625 2.453125q0.8125 0.84375 2.015625 0.84375q0.90625 0 1.546875 -0.46875q0.640625 -0.484375 1.015625 -1.515625zm-5.390625 -2.65625l5.40625 0q-0.109375 -1.21875 -0.625 -1.828125q-0.78125 -0.953125 -2.03125 -0.953125q-1.125 0 -1.90625 0.765625q-0.765625 0.75 -0.84375 2.015625zm10.219452 9.6875l-1.1875 0q2.734375 -4.375 2.734375 -8.75q0 -1.71875 -0.390625 -3.390625q-0.3125 -1.375 -0.875 -2.625q-0.359375 -0.828125 -1.46875 -2.734375l1.1875 0q1.703125 2.28125 2.53125 4.59375q0.6875 1.984375 0.6875 4.140625q0 2.46875 -0.9375 4.765625q-0.9375 2.296875 -2.28125 4.0zm10.708496 -3.921875l0 -8.40625l-1.453125 0l0 -1.265625l1.453125 0l0 -1.03125q0 -0.96875 0.171875 -1.453125q0.234375 -0.640625 0.828125 -1.03125q0.59375 -0.390625 1.671875 -0.390625q0.6875 0 1.53125 0.15625l-0.25 1.4375q-0.5 -0.09375 -0.953125 -0.09375q-0.75 0 -1.0625 0.328125q-0.3125 0.3125 -0.3125 1.1875l0 0.890625l1.890625 0l0 1.265625l-1.890625 0l0 8.40625l-1.625 0zm4.1832886 -4.84375q0 -2.6875 1.484375 -3.96875q1.25 -1.078125 3.046875 -1.078125q2.0 0 3.265625 1.3125q1.265625 1.296875 1.265625 3.609375q0 1.859375 -0.5625 2.9375q-0.5625 1.0625 -1.640625 1.65625q-1.0625 0.59375 -2.328125 0.59375q-2.03125 0 -3.28125 -1.296875q-1.25 -1.3125 -1.25 -3.765625zm1.6875 0q0 1.859375 0.796875 2.796875q0.8125 0.921875 2.046875 0.921875q1.21875 0 2.03125 -0.921875q0.8125 -0.9375 0.8125 -2.84375q0 -1.796875 -0.8125 -2.71875q-0.8125 -0.921875 -2.03125 -0.921875q-1.234375 0 -2.046875 0.921875q-0.796875 0.90625 -0.796875 2.765625zm9.281982 4.84375l0 -9.671875l1.46875 0l0 1.46875q0.5625 -1.03125 1.03125 -1.359375q0.484375 -0.328125 1.0625 -0.328125q0.828125 0 1.6875 0.53125l-0.5625 1.515625q-0.609375 -0.359375 -1.203125 -0.359375q-0.546875 0 -0.96875 0.328125q-0.421875 0.328125 -0.609375 0.890625q-0.28125 0.875 -0.28125 1.921875l0 5.0625l-1.625 0zm32.5979 -7.8125l0 -1.859375l1.859375 0l0 1.859375l-1.859375 0zm0 7.8125l0 -1.875l1.859375 0l0 1.875l-1.859375 0z" fill-rule="nonzero"/><path fill="#000000" fill-opacity="0.0" d="m63.09974 409.70078l129.88977 0l0 64.629944l-129.88977 0z" fill-rule="evenodd"/><path fill="#000000" d="m83.83789 436.6208l0 -13.359375l5.046875 0q1.328125 0 2.03125 0.125q0.96875 0.171875 1.640625 0.640625q0.671875 0.453125 1.078125 1.28125q0.40625 0.828125 0.40625 1.828125q0 1.703125 -1.09375 2.890625q-1.078125 1.171875 -3.921875 1.171875l-3.421875 0l0 5.421875l-1.765625 0zm1.765625 -7.0l3.453125 0q1.71875 0 2.4375 -0.640625q0.71875 -0.640625 0.71875 -1.796875q0 -0.84375 -0.421875 -1.4375q-0.421875 -0.59375 -1.125 -0.78125q-0.4375 -0.125 -1.640625 -0.125l-3.421875 0l0 4.78125zm10.459198 7.0l0 -9.671875l1.46875 0l0 1.46875q0.5625 -1.03125 1.03125 -1.359375q0.484375 -0.328125 1.0625 -0.328125q0.828125 0 1.6875 0.53125l-0.5625 1.515625q-0.609375 -0.359375 -1.203125 -0.359375q-0.546875 0 -0.96875 0.328125q-0.421875 0.328125 -0.609375 0.890625q-0.28125 0.875 -0.28125 1.921875l0 5.0625l-1.625 0zm6.228302 -11.46875l0 -1.890625l1.640625 0l0 1.890625l-1.640625 0zm0 11.46875l0 -9.671875l1.640625 0l0 9.671875l-1.640625 0zm3.5354462 -4.84375q0 -2.6875 1.484375 -3.96875q1.25 -1.078125 3.046875 -1.078125q2.0 0 3.265625 1.3125q1.265625 1.296875 1.265625 3.609375q0 1.859375 -0.5625 2.9375q-0.5625 1.0625 -1.640625 1.65625q-1.0625 0.59375 -2.328125 0.59375q-2.03125 0 -3.28125 -1.296875q-1.25 -1.3125 -1.25 -3.765625zm1.6875 0q0 1.859375 0.796875 2.796875q0.8125 0.921875 2.046875 0.921875q1.21875 0 2.03125 -0.921875q0.8125 -0.9375 0.8125 -2.84375q0 -1.796875 -0.8125 -2.71875q-0.8125 -0.921875 -2.03125 -0.921875q-1.234375 0 -2.046875 0.921875q-0.796875 0.90625 -0.796875 2.765625zm9.281967 4.84375l0 -9.671875l1.46875 0l0 1.46875q0.5625 -1.03125 1.03125 -1.359375q0.484375 -0.328125 1.0625 -0.328125q0.828125 0 1.6875 0.53125l-0.5625 1.515625q-0.609375 -0.359375 -1.203125 -0.359375q-0.546875 0 -0.96875 0.328125q-0.421875 0.328125 -0.609375 0.890625q-0.28125 0.875 -0.28125 1.921875l0 5.0625l-1.625 0zm17.724106 -1.1875q-0.921875 0.765625 -1.765625 1.09375q-0.828125 0.3125 -1.796875 0.3125q-1.59375 0 -2.453125 -0.78125q-0.859375 -0.78125 -0.859375 -1.984375q0 -0.71875 0.328125 -1.296875q0.328125 -0.59375 0.84375 -0.9375q0.53125 -0.359375 1.1875 -0.546875q0.46875 -0.125 1.453125 -0.25q1.984375 -0.234375 2.921875 -0.5625q0.015625 -0.34375 0.015625 -0.421875q0 -1.0 -0.46875 -1.421875q-0.625 -0.546875 -1.875 -0.546875q-1.15625 0 -1.703125 0.40625q-0.546875 0.40625 -0.8125 1.421875l-1.609375 -0.21875q0.21875 -1.015625 0.71875 -1.640625q0.5 -0.640625 1.453125 -0.984375q0.953125 -0.34375 2.1875 -0.34375q1.25 0 2.015625 0.296875q0.78125 0.28125 1.140625 0.734375q0.375 0.4375 0.515625 1.109375q0.078125 0.421875 0.078125 1.515625l0 2.1875q0 2.28125 0.109375 2.890625q0.109375 0.59375 0.40625 1.15625l-1.703125 0q-0.265625 -0.515625 -0.328125 -1.1875zm-0.140625 -3.671875q-0.890625 0.375 -2.671875 0.625q-1.015625 0.140625 -1.4375 0.328125q-0.421875 0.1875 -0.65625 0.53125q-0.21875 0.34375 -0.21875 0.78125q0 0.65625 0.5 1.09375q0.5 0.4375 1.453125 0.4375q0.9375 0 1.671875 -0.40625q0.75 -0.421875 1.09375 -1.140625q0.265625 -0.5625 0.265625 -1.640625l0 -0.609375zm4.188217 4.859375l0 -9.671875l1.46875 0l0 1.46875q0.5625 -1.03125 1.03125 -1.359375q0.484375 -0.328125 1.0625 -0.328125q0.828125 0 1.6875 0.53125l-0.5625 1.515625q-0.609375 -0.359375 -1.203125 -0.359375q-0.546875 0 -0.96875 0.328125q-0.421875 0.328125 -0.609375 0.890625q-0.28125 0.875 -0.28125 1.921875l0 5.0625l-1.625 0zm6.212677 0l0 -9.671875l1.46875 0l0 1.46875q0.5625 -1.03125 1.03125 -1.359375q0.484375 -0.328125 1.0625 -0.328125q0.828125 0 1.6875 0.53125l-0.5625 1.515625q-0.609375 -0.359375 -1.203125 -0.359375q-0.546875 0 -0.96875 0.328125q-0.421875 0.328125 -0.609375 0.890625q-0.28125 0.875 -0.28125 1.921875l0 5.0625l-1.625 0zm12.853302 -3.109375l1.6875 0.203125q-0.40625 1.484375 -1.484375 2.3125q-1.078125 0.8125 -2.765625 0.8125q-2.125 0 -3.375 -1.296875q-1.234375 -1.3125 -1.234375 -3.671875q0 -2.453125 1.25 -3.796875q1.265625 -1.34375 3.265625 -1.34375q1.9375 0 3.15625 1.328125q1.234375 1.3125 1.234375 3.703125q0 0.15625 0 0.4375l-7.21875 0q0.09375 1.59375 0.90625 2.453125q0.8125 0.84375 2.015625 0.84375q0.90625 0 1.546875 -0.46875q0.640625 -0.484375 1.015625 -1.515625zm-5.390625 -2.65625l5.40625 0q-0.109375 -1.21875 -0.625 -1.828125q-0.78125 -0.953125 -2.03125 -0.953125q-1.125 0 -1.90625 0.765625q-0.765625 0.75 -0.84375 2.015625zm8.485092 2.875l1.625 -0.25q0.125 0.96875 0.75 1.5q0.625 0.515625 1.75 0.515625q1.125 0 1.671875 -0.453125q0.546875 -0.46875 0.546875 -1.09375q0 -0.546875 -0.484375 -0.875q-0.328125 -0.21875 -1.671875 -0.546875q-1.8125 -0.46875 -2.515625 -0.796875q-0.6875 -0.328125 -1.046875 -0.90625q-0.359375 -0.59375 -0.359375 -1.3125q0 -0.640625 0.296875 -1.1875q0.296875 -0.5625 0.8125 -0.921875q0.375 -0.28125 1.03125 -0.46875q0.671875 -0.203125 1.421875 -0.203125q1.140625 0 2.0 0.328125q0.859375 0.328125 1.265625 0.890625q0.421875 0.5625 0.578125 1.5l-1.609375 0.21875q-0.109375 -0.75 -0.640625 -1.171875q-0.515625 -0.421875 -1.46875 -0.421875q-1.140625 0 -1.625 0.375q-0.46875 0.375 -0.46875 0.875q0 0.3125 0.1875 0.578125q0.203125 0.265625 0.640625 0.4375q0.234375 0.09375 1.4375 0.421875q1.75 0.453125 2.4375 0.75q0.6875 0.296875 1.078125 0.859375q0.390625 0.5625 0.390625 1.40625q0 0.828125 -0.484375 1.546875q-0.46875 0.71875 -1.375 1.125q-0.90625 0.390625 -2.046875 0.390625q-1.875 0 -2.875 -0.78125q-0.984375 -0.78125 -1.25 -2.328125zm13.5625 1.421875l0.234375 1.453125q-0.6875 0.140625 -1.234375 0.140625q-0.890625 0 -1.390625 -0.28125q-0.484375 -0.28125 -0.6875 -0.734375q-0.203125 -0.46875 -0.203125 -1.9375l0 -5.578125l-1.203125 0l0 -1.265625l1.203125 0l0 -2.390625l1.625 -0.984375l0 3.375l1.65625 0l0 1.265625l-1.65625 0l0 5.671875q0 0.6875 0.078125 0.890625q0.09375 0.203125 0.28125 0.328125q0.203125 0.109375 0.578125 0.109375q0.265625 0 0.71875 -0.0625zm0.94892883 -1.421875l1.625 -0.25q0.125 0.96875 0.75 1.5q0.625 0.515625 1.75 0.515625q1.125 0 1.671875 -0.453125q0.546875 -0.46875 0.546875 -1.09375q0 -0.546875 -0.484375 -0.875q-0.328125 -0.21875 -1.671875 -0.546875q-1.8125 -0.46875 -2.515625 -0.796875q-0.6875 -0.328125 -1.046875 -0.90625q-0.359375 -0.59375 -0.359375 -1.3125q0 -0.640625 0.296875 -1.1875q0.296875 -0.5625 0.8125 -0.921875q0.375 -0.28125 1.03125 -0.46875q0.671875 -0.203125 1.421875 -0.203125q1.140625 0 2.0 0.328125q0.859375 0.328125 1.265625 0.890625q0.421875 0.5625 0.578125 1.5l-1.609375 0.21875q-0.109375 -0.75 -0.640625 -1.171875q-0.515625 -0.421875 -1.46875 -0.421875q-1.140625 0 -1.625 0.375q-0.46875 0.375 -0.46875 0.875q0 0.3125 0.1875 0.578125q0.203125 0.265625 0.640625 0.4375q0.234375 0.09375 1.4375 0.421875q1.75 0.453125 2.4375 0.75q0.6875 0.296875 1.078125 0.859375q0.390625 0.5625 0.390625 1.40625q0 0.828125 -0.484375 1.546875q-0.46875 0.71875 -1.375 1.125q-0.90625 0.390625 -2.046875 0.390625q-1.875 0 -2.875 -0.78125q-0.984375 -0.78125 -1.25 -2.328125z" fill-rule="nonzero"/><path fill="#000000" d="m150.76324 459.02078l5.125 -13.359375l1.90625 0l5.46875 13.359375l-2.015625 0l-1.546875 -4.046875l-5.59375 0l-1.46875 4.046875l-1.875 0zm3.859375 -5.484375l4.53125 0l-1.40625 -3.703125q-0.625 -1.6875 -0.9375 -2.765625q-0.265625 1.28125 -0.71875 2.546875l-1.46875 3.921875zm9.537323 6.28125l1.59375 0.234375q0.109375 0.75 0.5625 1.078125q0.609375 0.453125 1.671875 0.453125q1.140625 0 1.75 -0.453125q0.625 -0.453125 0.84375 -1.265625q0.125 -0.5 0.109375 -2.109375q-1.0625 1.265625 -2.671875 1.265625q-2.0 0 -3.09375 -1.4375q-1.09375 -1.4375 -1.09375 -3.453125q0 -1.390625 0.5 -2.5625q0.515625 -1.171875 1.453125 -1.796875q0.953125 -0.640625 2.25 -0.640625q1.703125 0 2.8125 1.375l0 -1.15625l1.515625 0l0 8.359375q0 2.265625 -0.46875 3.203125q-0.453125 0.9375 -1.453125 1.484375q-0.984375 0.546875 -2.453125 0.546875q-1.71875 0 -2.796875 -0.78125q-1.0625 -0.765625 -1.03125 -2.34375zm1.359375 -5.8125q0 1.90625 0.75 2.78125q0.765625 0.875 1.90625 0.875q1.125 0 1.890625 -0.859375q0.765625 -0.875 0.765625 -2.734375q0 -1.78125 -0.796875 -2.671875q-0.78125 -0.90625 -1.890625 -0.90625q-1.09375 0 -1.859375 0.890625q-0.765625 0.875 -0.765625 2.625zm15.953842 1.90625l1.6875 0.203125q-0.40625 1.484375 -1.484375 2.3125q-1.078125 0.8125 -2.765625 0.8125q-2.125 0 -3.375 -1.296875q-1.234375 -1.3125 -1.234375 -3.671875q0 -2.453125 1.25 -3.796875q1.265625 -1.34375 3.265625 -1.34375q1.9375 0 3.15625 1.328125q1.234375 1.3125 1.234375 3.703125q0 0.15625 0 0.4375l-7.21875 0q0.09375 1.59375 0.90625 2.453125q0.8125 0.84375 2.015625 0.84375q0.90625 0 1.546875 -0.46875q0.640625 -0.484375 1.015625 -1.515625zm-5.390625 -2.65625l5.40625 0q-0.109375 -1.21875 -0.625 -1.828125q-0.78125 -0.953125 -2.03125 -0.953125q-1.125 0 -1.90625 0.765625q-0.765625 0.75 -0.84375 2.015625z" fill-rule="nonzero"/><path fill="#000000" d="m243.09973 422.6378l-30.992126 0l0 14.267731l30.992126 0z" fill-rule="evenodd"/><path stroke="#000000" stroke-width="1.0" stroke-linejoin="round" stroke-linecap="butt" d="m243.09973 422.6378l-30.992126 0l0 14.267731l30.992126 0z" fill-rule="evenodd"/><path fill="#000000" d="m243.09973 444.88715l-39.244095 0l0 14.2677l39.244095 0z" fill-rule="evenodd"/><path stroke="#000000" stroke-width="1.0" stroke-linejoin="round" stroke-linecap="butt" d="m243.09973 444.88715l-39.244095 0l0 14.2677l39.244095 0z" fill-rule="evenodd"/><path fill="#ffffff" d="m355.47638 406.35434l8.236206 -14.267731l8.236237 14.267731z" fill-rule="evenodd"/><path stroke="#000000" stroke-width="4.0" stroke-linejoin="round" stroke-linecap="butt" d="m355.47638 406.35434l8.236206 -14.267731l8.236237 14.267731z" fill-rule="evenodd"/></g></svg>